<svg xmlns="http://www.w3.org/2000/svg" xmlns:xlink="http://www.w3.org/1999/xlink" width="585.34" height="556.287" version="1.1" viewBox="0 0 439.005 417.216"><metadata><rdf:RDF xmlns:cc="http://creativecommons.org/ns#" xmlns:dc="http://purl.org/dc/elements/1.1/" xmlns:rdf="http://www.w3.org/1999/02/22-rdf-syntax-ns#"><cc:Work><dc:type rdf:resource="http://purl.org/dc/dcmitype/StillImage"/><dc:date>2023-05-16T16:16:11.834263</dc:date><dc:format>image/svg+xml</dc:format><dc:creator><cc:Agent><dc:title>Matplotlib v3.7.1, https://matplotlib.org/</dc:title></cc:Agent></dc:creator></cc:Work></rdf:RDF></metadata><defs><style type="text/css">*{stroke-linejoin:round;stroke-linecap:butt}</style></defs><g id="figure_1"><g id="patch_1"><path d="M 0 417.215625 L 439.004969 417.215625 L 439.004969 -0 L 0 -0 z" style="fill:#fff"/></g><g id="axes_1"><g id="patch_2"><path d="M 311.589755 88.90647 C 298.606256 79.795886 284.302782 72.728799 269.178194 67.951686 C 254.053605 63.174573 238.285803 60.743625 222.424719 60.743625 L 222.424719 215.975625 z" style="fill:#1f77b4;stroke:#fff;stroke-linejoin:miter"/></g><g id="patch_3"><path d="M 368.002335 162.085628 C 362.563613 147.393548 354.93195 133.609099 345.367086 121.201428 C 335.802221 108.793757 324.413913 97.905243 311.589755 88.90647 L 222.424719 215.975625 z" style="fill:#ff7f0e;stroke:#fff;stroke-linejoin:miter"/></g><g id="patch_4"><path d="M 373.205149 252.884105 C 376.869509 237.914273 378.284164 222.481848 377.402503 207.095293 C 376.520843 191.708738 373.352659 176.538913 368.002335 162.085628 L 222.424719 215.975625 z" style="fill:#2ca02c;stroke:#fff;stroke-linejoin:miter"/></g><g id="patch_5"><path d="M 331.660147 326.268849 C 341.789107 316.237033 350.488025 304.857551 357.511327 292.451649 C 364.534629 280.045747 369.815598 266.731275 373.205149 252.884105 L 222.424719 215.975625 z" style="fill:#d62728;stroke:#fff;stroke-linejoin:miter"/></g><g id="patch_6"><path d="M 269.462307 363.909526 C 281.131202 360.199243 292.320226 355.121309 302.795852 348.781705 C 313.271478 342.442101 322.960315 334.885243 331.660147 326.268849 L 222.424719 215.975625 z" style="fill:#9467bd;stroke:#fff;stroke-linejoin:miter"/></g><g id="patch_7"><path d="M 197.459067 369.186885 C 209.458626 371.142203 221.646456 371.681055 233.771755 370.792351 C 245.897054 369.903647 257.876074 367.593526 269.462307 363.909526 L 222.424719 215.975625 z" style="fill:#8c564b;stroke:#fff;stroke-linejoin:miter"/></g><g id="patch_8"><path d="M 144.105127 350.001799 C 152.315768 354.799772 160.949963 358.833118 169.898751 362.050936 C 178.84754 365.268754 188.07312 367.657452 197.459067 369.186885 L 222.424719 215.975625 z" style="fill:#e377c2;stroke:#fff;stroke-linejoin:miter"/></g><g id="patch_9"><path d="M 101.681727 313.536394 C 107.577672 320.833323 114.122967 327.580784 121.237222 333.695905 C 128.351478 339.811025 136.005448 345.268667 144.105127 350.001799 L 222.424719 215.975625 z" style="fill:#7f7f7f;stroke:#fff;stroke-linejoin:miter"/></g><g id="patch_10"><path d="M 76.204882 268.097914 C 79.135709 276.319827 82.754795 284.279911 87.023641 291.893488 C 91.292488 299.507064 96.195904 306.747039 101.681727 313.536394 L 222.424719 215.975625 z" style="fill:#bcbd22;stroke:#fff;stroke-linejoin:miter"/></g><g id="patch_11"><path d="M 67.221023 218.939809 C 67.380843 227.307938 68.217179 235.649453 69.721849 243.882744 C 71.22652 252.116036 73.394601 260.214168 76.204882 268.097914 L 222.424719 215.975625 z" style="fill:#17becf;stroke:#fff;stroke-linejoin:miter"/></g><g id="patch_12"><path d="M 71.984975 177.702174 C 70.273372 184.429894 69.014994 191.26486 68.218319 198.161027 C 67.421644 205.057194 67.088464 211.999043 67.221023 218.939809 L 222.424719 215.975625 z" style="fill:#1f77b4;stroke:#fff;stroke-linejoin:miter"/></g><g id="patch_13"><path d="M 84.380027 144.978183 C 81.706231 150.177009 79.328254 155.522731 77.257463 160.989796 C 75.186671 166.456861 73.426371 172.036544 71.984975 177.702174 L 222.424719 215.975625 z" style="fill:#ff7f0e;stroke:#fff;stroke-linejoin:miter"/></g><g id="patch_14"><path d="M 102.754055 117.102444 C 99.202135 121.401493 95.884453 125.888819 92.81544 130.544902 C 89.746426 135.200986 86.930539 140.019066 84.380027 144.978183 L 222.424719 215.975625 z" style="fill:#2ca02c;stroke:#fff;stroke-linejoin:miter"/></g><g id="patch_15"><path d="M 120.649653 98.762957 C 117.420824 101.56653 114.309218 104.502321 111.322797 107.562818 C 108.336376 110.623316 105.47769 113.805906 102.754055 117.102444 L 222.424719 215.975625 z" style="fill:#d62728;stroke:#fff;stroke-linejoin:miter"/></g><g id="patch_16"><path d="M 138.924212 85.114481 C 135.716313 87.161392 132.584765 89.325568 129.535916 91.602622 C 126.487066 93.879675 123.522976 96.268068 120.649653 98.762957 L 222.424719 215.975625 z" style="fill:#9467bd;stroke:#fff;stroke-linejoin:miter"/></g><g id="patch_17"><path d="M 155.439245 75.940201 C 152.59682 77.299865 149.796452 78.745757 147.042032 80.275867 C 144.287612 81.805977 141.580418 83.419596 138.924212 85.114481 L 222.424719 215.975625 z" style="fill:#8c564b;stroke:#fff;stroke-linejoin:miter"/></g><g id="patch_18"><path d="M 170.038504 69.850137 C 167.555529 70.740288 165.095645 71.69358 162.66125 72.709085 C 160.226854 73.72459 157.818737 74.801979 155.439245 75.940201 L 222.424719 215.975625 z" style="fill:#e377c2;stroke:#fff;stroke-linejoin:miter"/></g><g id="patch_19"><path d="M 184.576022 65.428457 C 182.118833 66.046213 179.677136 66.724034 177.253127 67.461312 C 174.829118 68.19859 172.423523 68.995104 170.038504 69.850137 L 222.424719 215.975625 z" style="fill:#7f7f7f;stroke:#fff;stroke-linejoin:miter"/></g><g id="patch_20"><path d="M 196.334703 62.95182 C 194.35986 63.288524 192.39172 63.663425 190.431389 64.076314 C 188.471057 64.489203 186.518903 64.940002 184.576022 65.428457 L 222.424719 215.975625 z" style="fill:#bcbd22;stroke:#fff;stroke-linejoin:miter"/></g><g id="patch_21"><path d="M 207.831015 61.431141 C 205.90633 61.61289 203.985208 61.830577 202.068654 62.08409 C 200.152101 62.337603 198.24045 62.626897 196.334703 62.95182 L 222.424719 215.975625 z" style="fill:#17becf;stroke:#fff;stroke-linejoin:miter"/></g><g id="patch_22"><path d="M 211.665702 61.116924 C 211.02597 61.16137 210.386518 61.20978 209.747385 61.262151 C 209.108252 61.314522 208.46945 61.370853 207.831015 61.431141 L 222.424719 215.975625 z" style="fill:#1f77b4;stroke:#fff;stroke-linejoin:miter"/></g><g id="patch_23"><path d="M 215.267811 60.908696 C 214.667082 60.936422 214.066518 60.967638 213.466152 61.002344 C 212.865785 61.037049 212.265625 61.075243 211.665702 61.116924 L 222.424719 215.975625 z" style="fill:#ff7f0e;stroke:#fff;stroke-linejoin:miter"/></g><g id="patch_24"><path d="M 218.184327 60.801552 C 217.698086 60.814839 217.211911 60.830412 216.725817 60.84827 C 216.239723 60.866127 215.753716 60.88627 215.267811 60.908696 L 222.424719 215.975625 z" style="fill:#2ca02c;stroke:#fff;stroke-linejoin:miter"/></g><g id="patch_25"><path d="M 220.672443 60.753515 C 220.257701 60.758197 219.84298 60.764541 219.428289 60.772548 C 219.013598 60.780554 218.59894 60.790222 218.184327 60.801552 L 222.424719 215.975625 z" style="fill:#d62728;stroke:#fff;stroke-linejoin:miter"/></g><g id="patch_26"><path d="M 221.651855 60.745549 C 221.488616 60.746362 221.325379 60.747432 221.162143 60.74876 C 220.998907 60.750087 220.835674 60.751673 220.672443 60.753515 L 222.424719 215.975625 z" style="fill:#9467bd;stroke:#fff;stroke-linejoin:miter"/></g><g id="patch_27"><path d="M 222.187175 60.743807 C 222.097955 60.743943 222.008735 60.744157 221.919515 60.744447 C 221.830295 60.744737 221.741075 60.745105 221.651855 60.745549 L 222.424719 215.975625 z" style="fill:#8c564b;stroke:#fff;stroke-linejoin:miter"/></g><g id="patch_28"><path d="M 222.424716 60.743625 C 222.385126 60.743625 222.345536 60.74364 222.305946 60.74367 C 222.266356 60.743701 222.226765 60.743746 222.187175 60.743807 L 222.424719 215.975625 z" style="fill:#e377c2;stroke:#fff;stroke-linejoin:miter"/></g><g id="text_1"><g style="fill:#262626" transform="translate(273.853541 55.734449) scale(0.1 -0.1)"><defs><path id="ArialMT-52" d="M 503 0 L 503 4581 L 2534 4581 Q 3147 4581 3465 4457 Q 3784 4334 3975 4021 Q 4166 3709 4166 3331 Q 4166 2844 3850 2509 Q 3534 2175 2875 2084 Q 3116 1969 3241 1856 Q 3506 1613 3744 1247 L 4541 0 L 3778 0 L 3172 953 Q 2906 1366 2734 1584 Q 2563 1803 2427 1890 Q 2291 1978 2150 2013 Q 2047 2034 1813 2034 L 1109 2034 L 1109 0 L 503 0 z M 1109 2559 L 2413 2559 Q 2828 2559 3062 2645 Q 3297 2731 3419 2920 Q 3541 3109 3541 3331 Q 3541 3656 3305 3865 Q 3069 4075 2559 4075 L 1109 4075 L 1109 2559 z" transform="scale(0.015625)"/><path id="ArialMT-69" d="M 425 3934 L 425 4581 L 988 4581 L 988 3934 L 425 3934 z M 425 0 L 425 3319 L 988 3319 L 988 0 L 425 0 z" transform="scale(0.015625)"/><path id="ArialMT-63" d="M 2588 1216 L 3141 1144 Q 3050 572 2676 248 Q 2303 -75 1759 -75 Q 1078 -75 664 370 Q 250 816 250 1647 Q 250 2184 428 2587 Q 606 2991 970 3192 Q 1334 3394 1763 3394 Q 2303 3394 2647 3120 Q 2991 2847 3088 2344 L 2541 2259 Q 2463 2594 2264 2762 Q 2066 2931 1784 2931 Q 1359 2931 1093 2626 Q 828 2322 828 1663 Q 828 994 1084 691 Q 1341 388 1753 388 Q 2084 388 2306 591 Q 2528 794 2588 1216 z" transform="scale(0.015625)"/><path id="ArialMT-65" d="M 2694 1069 L 3275 997 Q 3138 488 2766 206 Q 2394 -75 1816 -75 Q 1088 -75 661 373 Q 234 822 234 1631 Q 234 2469 665 2931 Q 1097 3394 1784 3394 Q 2450 3394 2872 2941 Q 3294 2488 3294 1666 Q 3294 1616 3291 1516 L 816 1516 Q 847 969 1125 678 Q 1403 388 1819 388 Q 2128 388 2347 550 Q 2566 713 2694 1069 z M 847 1978 L 2700 1978 Q 2663 2397 2488 2606 Q 2219 2931 1791 2931 Q 1403 2931 1139 2672 Q 875 2413 847 1978 z" transform="scale(0.015625)"/></defs><use xlink:href="#ArialMT-52"/><use x="72.217" xlink:href="#ArialMT-69"/><use x="94.434" xlink:href="#ArialMT-63"/><use x="144.434" xlink:href="#ArialMT-65"/></g></g><g id="text_2"><g style="fill:#262626" transform="translate(239.08071 129.746418) scale(0.1 -0.1)"><defs><path id="ArialMT-39" d="M 350 1059 L 891 1109 Q 959 728 1153 556 Q 1347 384 1650 384 Q 1909 384 2104 503 Q 2300 622 2425 820 Q 2550 1019 2634 1356 Q 2719 1694 2719 2044 Q 2719 2081 2716 2156 Q 2547 1888 2255 1720 Q 1963 1553 1622 1553 Q 1053 1553 659 1965 Q 266 2378 266 3053 Q 266 3750 677 4175 Q 1088 4600 1706 4600 Q 2153 4600 2523 4359 Q 2894 4119 3086 3673 Q 3278 3228 3278 2384 Q 3278 1506 3087 986 Q 2897 466 2520 194 Q 2144 -78 1638 -78 Q 1100 -78 759 220 Q 419 519 350 1059 z M 2653 3081 Q 2653 3566 2395 3850 Q 2138 4134 1775 4134 Q 1400 4134 1122 3828 Q 844 3522 844 3034 Q 844 2597 1108 2323 Q 1372 2050 1759 2050 Q 2150 2050 2401 2323 Q 2653 2597 2653 3081 z" transform="scale(0.015625)"/><path id="ArialMT-2e" d="M 581 0 L 581 641 L 1222 641 L 1222 0 L 581 0 z" transform="scale(0.015625)"/><path id="ArialMT-37" d="M 303 3981 L 303 4522 L 3269 4522 L 3269 4084 Q 2831 3619 2401 2847 Q 1972 2075 1738 1259 Q 1569 684 1522 0 L 944 0 Q 953 541 1156 1306 Q 1359 2072 1739 2783 Q 2119 3494 2547 3981 L 303 3981 z" transform="scale(0.015625)"/><path id="ArialMT-25" d="M 372 3481 Q 372 3972 619 4315 Q 866 4659 1334 4659 Q 1766 4659 2048 4351 Q 2331 4044 2331 3447 Q 2331 2866 2045 2552 Q 1759 2238 1341 2238 Q 925 2238 648 2547 Q 372 2856 372 3481 z M 1350 4272 Q 1141 4272 1002 4090 Q 863 3909 863 3425 Q 863 2984 1003 2804 Q 1144 2625 1350 2625 Q 1563 2625 1702 2806 Q 1841 2988 1841 3469 Q 1841 3913 1700 4092 Q 1559 4272 1350 4272 z M 1353 -169 L 3859 4659 L 4316 4659 L 1819 -169 L 1353 -169 z M 3334 1075 Q 3334 1569 3581 1911 Q 3828 2253 4300 2253 Q 4731 2253 5014 1945 Q 5297 1638 5297 1041 Q 5297 459 5011 145 Q 4725 -169 4303 -169 Q 3888 -169 3611 142 Q 3334 453 3334 1075 z M 4316 1866 Q 4103 1866 3964 1684 Q 3825 1503 3825 1019 Q 3825 581 3965 400 Q 4106 219 4313 219 Q 4528 219 4667 400 Q 4806 581 4806 1063 Q 4806 1506 4665 1686 Q 4525 1866 4316 1866 z" transform="scale(0.015625)"/></defs><use xlink:href="#ArialMT-39"/><use x="55.615" xlink:href="#ArialMT-2e"/><use x="83.398" xlink:href="#ArialMT-37"/><use x="139.014" xlink:href="#ArialMT-25"/></g></g><g id="text_3"><g style="fill:#262626" transform="translate(357.661322 114.309164) scale(0.1 -0.1)"><defs><path id="ArialMT-4d" d="M 475 0 L 475 4581 L 1388 4581 L 2472 1338 Q 2622 884 2691 659 Q 2769 909 2934 1394 L 4031 4581 L 4847 4581 L 4847 0 L 4263 0 L 4263 3834 L 2931 0 L 2384 0 L 1059 3900 L 1059 0 L 475 0 z" transform="scale(0.015625)"/><path id="ArialMT-61" d="M 2588 409 Q 2275 144 1986 34 Q 1697 -75 1366 -75 Q 819 -75 525 192 Q 231 459 231 875 Q 231 1119 342 1320 Q 453 1522 633 1644 Q 813 1766 1038 1828 Q 1203 1872 1538 1913 Q 2219 1994 2541 2106 Q 2544 2222 2544 2253 Q 2544 2597 2384 2738 Q 2169 2928 1744 2928 Q 1347 2928 1158 2789 Q 969 2650 878 2297 L 328 2372 Q 403 2725 575 2942 Q 747 3159 1072 3276 Q 1397 3394 1825 3394 Q 2250 3394 2515 3294 Q 2781 3194 2906 3042 Q 3031 2891 3081 2659 Q 3109 2516 3109 2141 L 3109 1391 Q 3109 606 3145 398 Q 3181 191 3288 0 L 2700 0 Q 2613 175 2588 409 z M 2541 1666 Q 2234 1541 1622 1453 Q 1275 1403 1131 1340 Q 988 1278 909 1158 Q 831 1038 831 891 Q 831 666 1001 516 Q 1172 366 1500 366 Q 1825 366 2078 508 Q 2331 650 2450 897 Q 2541 1088 2541 1459 L 2541 1666 z" transform="scale(0.015625)"/><path id="ArialMT-7a" d="M 125 0 L 125 456 L 2238 2881 Q 1878 2863 1603 2863 L 250 2863 L 250 3319 L 2963 3319 L 2963 2947 L 1166 841 L 819 456 Q 1197 484 1528 484 L 3063 484 L 3063 0 L 125 0 z" transform="scale(0.015625)"/></defs><use xlink:href="#ArialMT-4d"/><use x="83.301" xlink:href="#ArialMT-61"/><use x="138.916" xlink:href="#ArialMT-69"/><use x="161.133" xlink:href="#ArialMT-7a"/><use x="211.133" xlink:href="#ArialMT-65"/></g></g><g id="text_4"><g style="fill:#262626" transform="translate(284.794045 161.696263) scale(0.1 -0.1)"><defs><path id="ArialMT-36" d="M 3184 3459 L 2625 3416 Q 2550 3747 2413 3897 Q 2184 4138 1850 4138 Q 1581 4138 1378 3988 Q 1113 3794 959 3422 Q 806 3050 800 2363 Q 1003 2672 1297 2822 Q 1591 2972 1913 2972 Q 2475 2972 2870 2558 Q 3266 2144 3266 1488 Q 3266 1056 3080 686 Q 2894 316 2569 119 Q 2244 -78 1831 -78 Q 1128 -78 684 439 Q 241 956 241 2144 Q 241 3472 731 4075 Q 1159 4600 1884 4600 Q 2425 4600 2770 4297 Q 3116 3994 3184 3459 z M 888 1484 Q 888 1194 1011 928 Q 1134 663 1356 523 Q 1578 384 1822 384 Q 2178 384 2434 671 Q 2691 959 2691 1453 Q 2691 1928 2437 2201 Q 2184 2475 1800 2475 Q 1419 2475 1153 2201 Q 888 1928 888 1484 z" transform="scale(0.015625)"/></defs><use xlink:href="#ArialMT-39"/><use x="55.615" xlink:href="#ArialMT-2e"/><use x="83.398" xlink:href="#ArialMT-36"/><use x="139.014" xlink:href="#ArialMT-25"/></g></g><g id="text_5"><g style="fill:#262626" transform="translate(392.900282 208.792416) scale(0.1 -0.1)"><defs><path id="ArialMT-4f" d="M 309 2231 Q 309 3372 921 4017 Q 1534 4663 2503 4663 Q 3138 4663 3647 4359 Q 4156 4056 4423 3514 Q 4691 2972 4691 2284 Q 4691 1588 4409 1038 Q 4128 488 3612 205 Q 3097 -78 2500 -78 Q 1853 -78 1343 234 Q 834 547 571 1087 Q 309 1628 309 2231 z M 934 2222 Q 934 1394 1379 917 Q 1825 441 2497 441 Q 3181 441 3623 922 Q 4066 1403 4066 2288 Q 4066 2847 3877 3264 Q 3688 3681 3323 3911 Q 2959 4141 2506 4141 Q 1863 4141 1398 3698 Q 934 3256 934 2222 z" transform="scale(0.015625)"/><path id="ArialMT-6c" d="M 409 0 L 409 4581 L 972 4581 L 972 0 L 409 0 z" transform="scale(0.015625)"/><path id="ArialMT-73" d="M 197 991 L 753 1078 Q 800 744 1014 566 Q 1228 388 1613 388 Q 2000 388 2187 545 Q 2375 703 2375 916 Q 2375 1106 2209 1216 Q 2094 1291 1634 1406 Q 1016 1563 777 1677 Q 538 1791 414 1992 Q 291 2194 291 2438 Q 291 2659 392 2848 Q 494 3038 669 3163 Q 800 3259 1026 3326 Q 1253 3394 1513 3394 Q 1903 3394 2198 3281 Q 2494 3169 2634 2976 Q 2775 2784 2828 2463 L 2278 2388 Q 2241 2644 2061 2787 Q 1881 2931 1553 2931 Q 1166 2931 1000 2803 Q 834 2675 834 2503 Q 834 2394 903 2306 Q 972 2216 1119 2156 Q 1203 2125 1616 2013 Q 2213 1853 2448 1751 Q 2684 1650 2818 1456 Q 2953 1263 2953 975 Q 2953 694 2789 445 Q 2625 197 2315 61 Q 2006 -75 1616 -75 Q 969 -75 630 194 Q 291 463 197 991 z" transform="scale(0.015625)"/><path id="ArialMT-64" d="M 2575 0 L 2575 419 Q 2259 -75 1647 -75 Q 1250 -75 917 144 Q 584 363 401 755 Q 219 1147 219 1656 Q 219 2153 384 2558 Q 550 2963 881 3178 Q 1213 3394 1622 3394 Q 1922 3394 2156 3267 Q 2391 3141 2538 2938 L 2538 4581 L 3097 4581 L 3097 0 L 2575 0 z M 797 1656 Q 797 1019 1065 703 Q 1334 388 1700 388 Q 2069 388 2326 689 Q 2584 991 2584 1609 Q 2584 2291 2321 2609 Q 2059 2928 1675 2928 Q 1300 2928 1048 2622 Q 797 2316 797 1656 z" transform="scale(0.015625)"/></defs><use xlink:href="#ArialMT-4f"/><use x="77.783" xlink:href="#ArialMT-69"/><use x="100" xlink:href="#ArialMT-6c"/><use x="122.217" xlink:href="#ArialMT-73"/><use x="172.217" xlink:href="#ArialMT-65"/><use x="227.832" xlink:href="#ArialMT-65"/><use x="283.447" xlink:href="#ArialMT-64"/><use x="339.063" xlink:href="#ArialMT-73"/></g></g><g id="text_6"><g style="fill:#262626" transform="translate(304.015296 213.232582) scale(0.1 -0.1)"><defs><path id="ArialMT-35" d="M 266 1200 L 856 1250 Q 922 819 1161 601 Q 1400 384 1738 384 Q 2144 384 2425 690 Q 2706 997 2706 1503 Q 2706 1984 2436 2262 Q 2166 2541 1728 2541 Q 1456 2541 1237 2417 Q 1019 2294 894 2097 L 366 2166 L 809 4519 L 3088 4519 L 3088 3981 L 1259 3981 L 1013 2750 Q 1425 3038 1878 3038 Q 2478 3038 2890 2622 Q 3303 2206 3303 1553 Q 3303 931 2941 478 Q 2500 -78 1738 -78 Q 1113 -78 717 272 Q 322 622 266 1200 z" transform="scale(0.015625)"/></defs><use xlink:href="#ArialMT-39"/><use x="55.615" xlink:href="#ArialMT-2e"/><use x="83.398" xlink:href="#ArialMT-35"/><use x="139.014" xlink:href="#ArialMT-25"/></g></g><g id="text_7"><g style="fill:#262626" transform="translate(371.019988 302.686751) scale(0.1 -0.1)"><defs><path id="ArialMT-53" d="M 288 1472 L 859 1522 Q 900 1178 1048 958 Q 1197 738 1509 602 Q 1822 466 2213 466 Q 2559 466 2825 569 Q 3091 672 3220 851 Q 3350 1031 3350 1244 Q 3350 1459 3225 1620 Q 3100 1781 2813 1891 Q 2628 1963 1997 2114 Q 1366 2266 1113 2400 Q 784 2572 623 2826 Q 463 3081 463 3397 Q 463 3744 659 4045 Q 856 4347 1234 4503 Q 1613 4659 2075 4659 Q 2584 4659 2973 4495 Q 3363 4331 3572 4012 Q 3781 3694 3797 3291 L 3216 3247 Q 3169 3681 2898 3903 Q 2628 4125 2100 4125 Q 1550 4125 1298 3923 Q 1047 3722 1047 3438 Q 1047 3191 1225 3031 Q 1400 2872 2139 2705 Q 2878 2538 3153 2413 Q 3553 2228 3743 1945 Q 3934 1663 3934 1294 Q 3934 928 3725 604 Q 3516 281 3123 101 Q 2731 -78 2241 -78 Q 1619 -78 1198 103 Q 778 284 539 648 Q 300 1013 288 1472 z" transform="scale(0.015625)"/><path id="ArialMT-6f" d="M 213 1659 Q 213 2581 725 3025 Q 1153 3394 1769 3394 Q 2453 3394 2887 2945 Q 3322 2497 3322 1706 Q 3322 1066 3130 698 Q 2938 331 2570 128 Q 2203 -75 1769 -75 Q 1072 -75 642 372 Q 213 819 213 1659 z M 791 1659 Q 791 1022 1069 705 Q 1347 388 1769 388 Q 2188 388 2466 706 Q 2744 1025 2744 1678 Q 2744 2294 2464 2611 Q 2184 2928 1769 2928 Q 1347 2928 1069 2612 Q 791 2297 791 1659 z" transform="scale(0.015625)"/><path id="ArialMT-72" d="M 416 0 L 416 3319 L 922 3319 L 922 2816 Q 1116 3169 1280 3281 Q 1444 3394 1641 3394 Q 1925 3394 2219 3213 L 2025 2691 Q 1819 2813 1613 2813 Q 1428 2813 1281 2702 Q 1134 2591 1072 2394 Q 978 2094 978 1738 L 978 0 L 416 0 z" transform="scale(0.015625)"/><path id="ArialMT-67" d="M 319 -275 L 866 -356 Q 900 -609 1056 -725 Q 1266 -881 1628 -881 Q 2019 -881 2231 -725 Q 2444 -569 2519 -288 Q 2563 -116 2559 434 Q 2191 0 1641 0 Q 956 0 581 494 Q 206 988 206 1678 Q 206 2153 378 2554 Q 550 2956 876 3175 Q 1203 3394 1644 3394 Q 2231 3394 2613 2919 L 2613 3319 L 3131 3319 L 3131 450 Q 3131 -325 2973 -648 Q 2816 -972 2473 -1159 Q 2131 -1347 1631 -1347 Q 1038 -1347 672 -1080 Q 306 -813 319 -275 z M 784 1719 Q 784 1066 1043 766 Q 1303 466 1694 466 Q 2081 466 2343 764 Q 2606 1063 2606 1700 Q 2606 2309 2336 2618 Q 2066 2928 1684 2928 Q 1309 2928 1046 2623 Q 784 2319 784 1719 z" transform="scale(0.015625)"/><path id="ArialMT-68" d="M 422 0 L 422 4581 L 984 4581 L 984 2938 Q 1378 3394 1978 3394 Q 2347 3394 2619 3248 Q 2891 3103 3008 2847 Q 3125 2591 3125 2103 L 3125 0 L 2563 0 L 2563 2103 Q 2563 2525 2380 2717 Q 2197 2909 1863 2909 Q 1613 2909 1392 2779 Q 1172 2650 1078 2428 Q 984 2206 984 1816 L 984 0 L 422 0 z" transform="scale(0.015625)"/><path id="ArialMT-75" d="M 2597 0 L 2597 488 Q 2209 -75 1544 -75 Q 1250 -75 995 37 Q 741 150 617 320 Q 494 491 444 738 Q 409 903 409 1263 L 409 3319 L 972 3319 L 972 1478 Q 972 1038 1006 884 Q 1059 663 1231 536 Q 1403 409 1656 409 Q 1909 409 2131 539 Q 2353 669 2445 892 Q 2538 1116 2538 1541 L 2538 3319 L 3100 3319 L 3100 0 L 2597 0 z" transform="scale(0.015625)"/><path id="ArialMT-6d" d="M 422 0 L 422 3319 L 925 3319 L 925 2853 Q 1081 3097 1340 3245 Q 1600 3394 1931 3394 Q 2300 3394 2536 3241 Q 2772 3088 2869 2813 Q 3263 3394 3894 3394 Q 4388 3394 4653 3120 Q 4919 2847 4919 2278 L 4919 0 L 4359 0 L 4359 2091 Q 4359 2428 4304 2576 Q 4250 2725 4106 2815 Q 3963 2906 3769 2906 Q 3419 2906 3187 2673 Q 2956 2441 2956 1928 L 2956 0 L 2394 0 L 2394 2156 Q 2394 2531 2256 2718 Q 2119 2906 1806 2906 Q 1569 2906 1367 2781 Q 1166 2656 1075 2415 Q 984 2175 984 1722 L 984 0 L 422 0 z" transform="scale(0.015625)"/></defs><use xlink:href="#ArialMT-53"/><use x="66.699" xlink:href="#ArialMT-6f"/><use x="122.314" xlink:href="#ArialMT-72"/><use x="155.615" xlink:href="#ArialMT-67"/><use x="211.23" xlink:href="#ArialMT-68"/><use x="266.846" xlink:href="#ArialMT-75"/><use x="322.461" xlink:href="#ArialMT-6d"/></g></g><g id="text_8"><g style="fill:#262626" transform="translate(292.08059 264.446396) scale(0.1 -0.1)"><defs><path id="ArialMT-38" d="M 1131 2484 Q 781 2613 612 2850 Q 444 3088 444 3419 Q 444 3919 803 4259 Q 1163 4600 1759 4600 Q 2359 4600 2725 4251 Q 3091 3903 3091 3403 Q 3091 3084 2923 2848 Q 2756 2613 2416 2484 Q 2838 2347 3058 2040 Q 3278 1734 3278 1309 Q 3278 722 2862 322 Q 2447 -78 1769 -78 Q 1091 -78 675 323 Q 259 725 259 1325 Q 259 1772 486 2073 Q 713 2375 1131 2484 z M 1019 3438 Q 1019 3113 1228 2906 Q 1438 2700 1772 2700 Q 2097 2700 2305 2904 Q 2513 3109 2513 3406 Q 2513 3716 2298 3927 Q 2084 4138 1766 4138 Q 1444 4138 1231 3931 Q 1019 3725 1019 3438 z M 838 1322 Q 838 1081 952 856 Q 1066 631 1291 507 Q 1516 384 1775 384 Q 2178 384 2440 643 Q 2703 903 2703 1303 Q 2703 1709 2433 1975 Q 2163 2241 1756 2241 Q 1359 2241 1098 1978 Q 838 1716 838 1322 z" transform="scale(0.015625)"/></defs><use xlink:href="#ArialMT-38"/><use x="55.615" xlink:href="#ArialMT-2e"/><use x="83.398" xlink:href="#ArialMT-38"/><use x="139.014" xlink:href="#ArialMT-25"/></g></g><g id="text_9"><g style="fill:#262626" transform="translate(310.832965 364.588876) scale(0.1 -0.1)"><defs><path id="ArialMT-62" d="M 941 0 L 419 0 L 419 4581 L 981 4581 L 981 2947 Q 1338 3394 1891 3394 Q 2197 3394 2470 3270 Q 2744 3147 2920 2923 Q 3097 2700 3197 2384 Q 3297 2069 3297 1709 Q 3297 856 2875 390 Q 2453 -75 1863 -75 Q 1275 -75 941 416 L 941 0 z M 934 1684 Q 934 1088 1097 822 Q 1363 388 1816 388 Q 2184 388 2453 708 Q 2722 1028 2722 1663 Q 2722 2313 2464 2622 Q 2206 2931 1841 2931 Q 1472 2931 1203 2611 Q 934 2291 934 1684 z" transform="scale(0.015625)"/><path id="ArialMT-20" transform="scale(0.015625)"/></defs><use xlink:href="#ArialMT-52"/><use x="72.217" xlink:href="#ArialMT-61"/><use x="127.832" xlink:href="#ArialMT-62"/><use x="183.447" xlink:href="#ArialMT-69"/><use x="205.664" xlink:href="#ArialMT-20"/><use x="233.447" xlink:href="#ArialMT-73"/><use x="283.447" xlink:href="#ArialMT-6f"/><use x="339.063" xlink:href="#ArialMT-72"/><use x="372.363" xlink:href="#ArialMT-67"/><use x="427.979" xlink:href="#ArialMT-68"/><use x="483.594" xlink:href="#ArialMT-75"/><use x="539.209" xlink:href="#ArialMT-6d"/></g></g><g id="text_10"><g style="fill:#262626" transform="translate(259.251305 298.244429) scale(0.1 -0.1)"><use xlink:href="#ArialMT-37"/><use x="55.615" xlink:href="#ArialMT-2e"/><use x="83.398" xlink:href="#ArialMT-35"/><use x="139.014" xlink:href="#ArialMT-25"/></g></g><g id="text_11"><g style="fill:#262626" transform="translate(234.906458 388.920117) scale(0.1 -0.1)"><defs><path id="ArialMT-43" d="M 3763 1606 L 4369 1453 Q 4178 706 3683 314 Q 3188 -78 2472 -78 Q 1731 -78 1267 223 Q 803 525 561 1097 Q 319 1669 319 2325 Q 319 3041 592 3573 Q 866 4106 1370 4382 Q 1875 4659 2481 4659 Q 3169 4659 3637 4309 Q 4106 3959 4291 3325 L 3694 3184 Q 3534 3684 3231 3912 Q 2928 4141 2469 4141 Q 1941 4141 1586 3887 Q 1231 3634 1087 3207 Q 944 2781 944 2328 Q 944 1744 1114 1308 Q 1284 872 1643 656 Q 2003 441 2422 441 Q 2931 441 3284 734 Q 3638 1028 3763 1606 z" transform="scale(0.015625)"/><path id="ArialMT-6b" d="M 425 0 L 425 4581 L 988 4581 L 988 1969 L 2319 3319 L 3047 3319 L 1778 2088 L 3175 0 L 2481 0 L 1384 1697 L 988 1316 L 988 0 L 425 0 z" transform="scale(0.015625)"/><path id="ArialMT-70" d="M 422 -1272 L 422 3319 L 934 3319 L 934 2888 Q 1116 3141 1344 3267 Q 1572 3394 1897 3394 Q 2322 3394 2647 3175 Q 2972 2956 3137 2557 Q 3303 2159 3303 1684 Q 3303 1175 3120 767 Q 2938 359 2589 142 Q 2241 -75 1856 -75 Q 1575 -75 1351 44 Q 1128 163 984 344 L 984 -1272 L 422 -1272 z M 931 1641 Q 931 1000 1190 694 Q 1450 388 1819 388 Q 2194 388 2461 705 Q 2728 1022 2728 1688 Q 2728 2322 2467 2637 Q 2206 2953 1844 2953 Q 1484 2953 1207 2617 Q 931 2281 931 1641 z" transform="scale(0.015625)"/></defs><use xlink:href="#ArialMT-43"/><use x="72.217" xlink:href="#ArialMT-68"/><use x="127.832" xlink:href="#ArialMT-69"/><use x="150.049" xlink:href="#ArialMT-63"/><use x="200.049" xlink:href="#ArialMT-6b"/><use x="250.049" xlink:href="#ArialMT-70"/><use x="305.664" xlink:href="#ArialMT-65"/><use x="361.279" xlink:href="#ArialMT-61"/></g></g><g id="text_12"><g style="fill:#262626" transform="translate(217.836847 311.450817) scale(0.1 -0.1)"><use xlink:href="#ArialMT-37"/><use x="55.615" xlink:href="#ArialMT-2e"/><use x="83.398" xlink:href="#ArialMT-35"/><use x="139.014" xlink:href="#ArialMT-25"/></g></g><g id="text_13"><g style="fill:#262626" transform="translate(116.827405 379.18503) scale(0.1 -0.1)"><defs><path id="ArialMT-50" d="M 494 0 L 494 4581 L 2222 4581 Q 2678 4581 2919 4538 Q 3256 4481 3484 4323 Q 3713 4166 3852 3881 Q 3991 3597 3991 3256 Q 3991 2672 3619 2267 Q 3247 1863 2275 1863 L 1100 1863 L 1100 0 L 494 0 z M 1100 2403 L 2284 2403 Q 2872 2403 3119 2622 Q 3366 2841 3366 3238 Q 3366 3525 3220 3729 Q 3075 3934 2838 4000 Q 2684 4041 2272 4041 L 1100 4041 L 1100 2403 z" transform="scale(0.015625)"/><path id="ArialMT-6e" d="M 422 0 L 422 3319 L 928 3319 L 928 2847 Q 1294 3394 1984 3394 Q 2284 3394 2536 3286 Q 2788 3178 2913 3003 Q 3038 2828 3088 2588 Q 3119 2431 3119 2041 L 3119 0 L 2556 0 L 2556 2019 Q 2556 2363 2490 2533 Q 2425 2703 2258 2804 Q 2091 2906 1866 2906 Q 1506 2906 1245 2678 Q 984 2450 984 1813 L 984 0 L 422 0 z" transform="scale(0.015625)"/></defs><use xlink:href="#ArialMT-50"/><use x="66.699" xlink:href="#ArialMT-69"/><use x="88.916" xlink:href="#ArialMT-67"/><use x="144.531" xlink:href="#ArialMT-65"/><use x="200.146" xlink:href="#ArialMT-6f"/><use x="255.762" xlink:href="#ArialMT-6e"/><use x="311.377" xlink:href="#ArialMT-70"/><use x="366.992" xlink:href="#ArialMT-65"/><use x="422.607" xlink:href="#ArialMT-61"/></g></g><g id="text_14"><g style="fill:#262626" transform="translate(179.513045 306.205968) scale(0.1 -0.1)"><use xlink:href="#ArialMT-35"/><use x="55.615" xlink:href="#ArialMT-2e"/><use x="83.398" xlink:href="#ArialMT-38"/><use x="139.014" xlink:href="#ArialMT-25"/></g></g><g id="text_15"><g style="fill:#262626" transform="translate(54.432535 348.053089) scale(0.1 -0.1)"><use xlink:href="#ArialMT-4d"/><use x="83.301" xlink:href="#ArialMT-69"/><use x="105.518" xlink:href="#ArialMT-6e"/><use x="161.133" xlink:href="#ArialMT-6f"/><use x="216.748" xlink:href="#ArialMT-72"/><use x="250.049" xlink:href="#ArialMT-20"/><use x="277.832" xlink:href="#ArialMT-70"/><use x="333.447" xlink:href="#ArialMT-75"/><use x="389.063" xlink:href="#ArialMT-6c"/><use x="411.279" xlink:href="#ArialMT-73"/><use x="461.279" xlink:href="#ArialMT-65"/><use x="516.895" xlink:href="#ArialMT-73"/></g></g><g id="text_16"><g style="fill:#262626" transform="translate(150.316127 289.192949) scale(0.1 -0.1)"><use xlink:href="#ArialMT-35"/><use x="55.615" xlink:href="#ArialMT-2e"/><use x="83.398" xlink:href="#ArialMT-38"/><use x="139.014" xlink:href="#ArialMT-25"/></g></g><g id="text_17"><g style="fill:#262626" transform="translate(19.028846 302.011837) scale(0.1 -0.1)"><defs><path id="ArialMT-46" d="M 525 0 L 525 4581 L 3616 4581 L 3616 4041 L 1131 4041 L 1131 2622 L 3281 2622 L 3281 2081 L 1131 2081 L 1131 0 L 525 0 z" transform="scale(0.015625)"/><path id="ArialMT-74" d="M 1650 503 L 1731 6 Q 1494 -44 1306 -44 Q 1000 -44 831 53 Q 663 150 594 308 Q 525 466 525 972 L 525 2881 L 113 2881 L 113 3319 L 525 3319 L 525 4141 L 1084 4478 L 1084 3319 L 1650 3319 L 1650 2881 L 1084 2881 L 1084 941 Q 1084 700 1114 631 Q 1144 563 1211 522 Q 1278 481 1403 481 Q 1497 481 1650 503 z" transform="scale(0.015625)"/></defs><use xlink:href="#ArialMT-46"/><use x="61.084" xlink:href="#ArialMT-69"/><use x="83.301" xlink:href="#ArialMT-6e"/><use x="138.916" xlink:href="#ArialMT-67"/><use x="194.531" xlink:href="#ArialMT-65"/><use x="250.146" xlink:href="#ArialMT-72"/><use x="283.447" xlink:href="#ArialMT-20"/><use x="311.23" xlink:href="#ArialMT-6d"/><use x="394.531" xlink:href="#ArialMT-69"/><use x="416.748" xlink:href="#ArialMT-6c"/><use x="438.965" xlink:href="#ArialMT-6c"/><use x="461.182" xlink:href="#ArialMT-65"/><use x="516.797" xlink:href="#ArialMT-74"/></g></g><g id="text_18"><g style="fill:#262626" transform="translate(129.787979 264.111499) scale(0.1 -0.1)"><defs><path id="ArialMT-34" d="M 2069 0 L 2069 1097 L 81 1097 L 81 1613 L 2172 4581 L 2631 4581 L 2631 1613 L 3250 1613 L 3250 1097 L 2631 1097 L 2631 0 L 2069 0 z M 2069 1613 L 2069 3678 L 634 1613 L 2069 1613 z" transform="scale(0.015625)"/></defs><use xlink:href="#ArialMT-35"/><use x="55.615" xlink:href="#ArialMT-2e"/><use x="83.398" xlink:href="#ArialMT-34"/><use x="139.014" xlink:href="#ArialMT-25"/></g></g><g id="text_19"><g style="fill:#262626" transform="translate(7.2 249.258613) scale(0.1 -0.1)"><defs><path id="ArialMT-47" d="M 2638 1797 L 2638 2334 L 4578 2338 L 4578 638 Q 4131 281 3656 101 Q 3181 -78 2681 -78 Q 2006 -78 1454 211 Q 903 500 622 1047 Q 341 1594 341 2269 Q 341 2938 620 3517 Q 900 4097 1425 4378 Q 1950 4659 2634 4659 Q 3131 4659 3532 4498 Q 3934 4338 4162 4050 Q 4391 3763 4509 3300 L 3963 3150 Q 3859 3500 3706 3700 Q 3553 3900 3268 4020 Q 2984 4141 2638 4141 Q 2222 4141 1919 4014 Q 1616 3888 1430 3681 Q 1244 3475 1141 3228 Q 966 2803 966 2306 Q 966 1694 1177 1281 Q 1388 869 1791 669 Q 2194 469 2647 469 Q 3041 469 3416 620 Q 3791 772 3984 944 L 3984 1797 L 2638 1797 z" transform="scale(0.015625)"/></defs><use xlink:href="#ArialMT-47"/><use x="77.783" xlink:href="#ArialMT-72"/><use x="111.084" xlink:href="#ArialMT-6f"/><use x="166.699" xlink:href="#ArialMT-75"/><use x="222.314" xlink:href="#ArialMT-6e"/><use x="277.93" xlink:href="#ArialMT-64"/><use x="333.545" xlink:href="#ArialMT-6e"/><use x="389.16" xlink:href="#ArialMT-75"/><use x="444.775" xlink:href="#ArialMT-74"/></g></g><g id="text_20"><g style="fill:#262626" transform="translate(119.406904 235.305053) scale(0.1 -0.1)"><defs><path id="ArialMT-31" d="M 2384 0 L 1822 0 L 1822 3584 Q 1619 3391 1289 3197 Q 959 3003 697 2906 L 697 3450 Q 1169 3672 1522 3987 Q 1875 4303 2022 4600 L 2384 4600 L 2384 0 z" transform="scale(0.015625)"/></defs><use xlink:href="#ArialMT-35"/><use x="55.615" xlink:href="#ArialMT-2e"/><use x="83.398" xlink:href="#ArialMT-31"/><use x="139.014" xlink:href="#ArialMT-25"/></g></g><g id="text_21"><g style="fill:#262626" transform="translate(23.336742 198.964724) scale(0.1 -0.1)"><use xlink:href="#ArialMT-43"/><use x="72.217" xlink:href="#ArialMT-6f"/><use x="127.832" xlink:href="#ArialMT-74"/><use x="155.615" xlink:href="#ArialMT-74"/><use x="183.398" xlink:href="#ArialMT-6f"/><use x="239.014" xlink:href="#ArialMT-6e"/></g></g><g id="text_22"><g style="fill:#262626" transform="translate(118.504786 207.872023) scale(0.1 -0.1)"><defs><path id="ArialMT-33" d="M 269 1209 L 831 1284 Q 928 806 1161 595 Q 1394 384 1728 384 Q 2125 384 2398 659 Q 2672 934 2672 1341 Q 2672 1728 2419 1979 Q 2166 2231 1775 2231 Q 1616 2231 1378 2169 L 1441 2663 Q 1497 2656 1531 2656 Q 1891 2656 2178 2843 Q 2466 3031 2466 3422 Q 2466 3731 2256 3934 Q 2047 4138 1716 4138 Q 1388 4138 1169 3931 Q 950 3725 888 3313 L 325 3413 Q 428 3978 793 4289 Q 1159 4600 1703 4600 Q 2078 4600 2393 4439 Q 2709 4278 2876 4000 Q 3044 3722 3044 3409 Q 3044 3113 2884 2869 Q 2725 2625 2413 2481 Q 2819 2388 3044 2092 Q 3269 1797 3269 1353 Q 3269 753 2831 336 Q 2394 -81 1725 -81 Q 1122 -81 723 278 Q 325 638 269 1209 z" transform="scale(0.015625)"/></defs><use xlink:href="#ArialMT-34"/><use x="55.615" xlink:href="#ArialMT-2e"/><use x="83.398" xlink:href="#ArialMT-33"/><use x="139.014" xlink:href="#ArialMT-25"/></g></g><g id="text_23"><g style="fill:#262626" transform="translate(14.375112 158.078713) scale(0.1 -0.1)"><use xlink:href="#ArialMT-53"/><use x="66.699" xlink:href="#ArialMT-75"/><use x="122.314" xlink:href="#ArialMT-67"/><use x="177.93" xlink:href="#ArialMT-61"/><use x="233.545" xlink:href="#ArialMT-72"/><use x="266.846" xlink:href="#ArialMT-63"/><use x="316.846" xlink:href="#ArialMT-61"/><use x="372.461" xlink:href="#ArialMT-6e"/><use x="428.076" xlink:href="#ArialMT-65"/></g></g><g id="text_24"><g style="fill:#262626" transform="translate(123.928272 185.569284) scale(0.1 -0.1)"><use xlink:href="#ArialMT-33"/><use x="55.615" xlink:href="#ArialMT-2e"/><use x="83.398" xlink:href="#ArialMT-36"/><use x="139.014" xlink:href="#ArialMT-25"/></g></g><g id="text_25"><g style="fill:#262626" transform="translate(35.388887 124.586986) scale(0.1 -0.1)"><defs><path id="ArialMT-66" d="M 556 0 L 556 2881 L 59 2881 L 59 3319 L 556 3319 L 556 3672 Q 556 4006 616 4169 Q 697 4388 901 4523 Q 1106 4659 1475 4659 Q 1713 4659 2000 4603 L 1916 4113 Q 1741 4144 1584 4144 Q 1328 4144 1222 4034 Q 1116 3925 1116 3625 L 1116 3319 L 1763 3319 L 1763 2881 L 1116 2881 L 1116 0 L 556 0 z" transform="scale(0.015625)"/><path id="ArialMT-77" d="M 1034 0 L 19 3319 L 600 3319 L 1128 1403 L 1325 691 Q 1338 744 1497 1375 L 2025 3319 L 2603 3319 L 3100 1394 L 3266 759 L 3456 1400 L 4025 3319 L 4572 3319 L 3534 0 L 2950 0 L 2422 1988 L 2294 2553 L 1622 0 L 1034 0 z" transform="scale(0.015625)"/></defs><use xlink:href="#ArialMT-53"/><use x="66.699" xlink:href="#ArialMT-75"/><use x="122.314" xlink:href="#ArialMT-6e"/><use x="177.93" xlink:href="#ArialMT-66"/><use x="205.713" xlink:href="#ArialMT-6c"/><use x="227.93" xlink:href="#ArialMT-6f"/><use x="283.545" xlink:href="#ArialMT-77"/><use x="355.762" xlink:href="#ArialMT-65"/><use x="411.377" xlink:href="#ArialMT-72"/></g></g><g id="text_26"><g style="fill:#262626" transform="translate(133.263058 167.302348) scale(0.1 -0.1)"><use xlink:href="#ArialMT-33"/><use x="55.615" xlink:href="#ArialMT-2e"/><use x="83.398" xlink:href="#ArialMT-34"/><use x="139.014" xlink:href="#ArialMT-25"/></g></g><g id="text_27"><g style="fill:#262626" transform="translate(75.214167 99.306694) scale(0.1 -0.1)"><use xlink:href="#ArialMT-46"/><use x="61.084" xlink:href="#ArialMT-72"/><use x="94.385" xlink:href="#ArialMT-75"/><use x="150" xlink:href="#ArialMT-69"/><use x="172.217" xlink:href="#ArialMT-74"/><use x="200" xlink:href="#ArialMT-73"/></g></g><g id="text_28"><g style="fill:#262626" transform="translate(144.367472 153.513097) scale(0.1 -0.1)"><defs><path id="ArialMT-32" d="M 3222 541 L 3222 0 L 194 0 Q 188 203 259 391 Q 375 700 629 1000 Q 884 1300 1366 1694 Q 2113 2306 2375 2664 Q 2638 3022 2638 3341 Q 2638 3675 2398 3904 Q 2159 4134 1775 4134 Q 1369 4134 1125 3890 Q 881 3647 878 3216 L 300 3275 Q 359 3922 746 4261 Q 1134 4600 1788 4600 Q 2447 4600 2831 4234 Q 3216 3869 3216 3328 Q 3216 3053 3103 2787 Q 2991 2522 2730 2228 Q 2469 1934 1863 1422 Q 1356 997 1212 845 Q 1069 694 975 541 L 3222 541 z" transform="scale(0.015625)"/></defs><use xlink:href="#ArialMT-32"/><use x="55.615" xlink:href="#ArialMT-2e"/><use x="83.398" xlink:href="#ArialMT-36"/><use x="139.014" xlink:href="#ArialMT-25"/></g></g><g id="text_29"><g style="fill:#262626" transform="translate(70.761098 81.691884) scale(0.1 -0.1)"><defs><path id="ArialMT-56" d="M 1803 0 L 28 4581 L 684 4581 L 1875 1253 Q 2019 853 2116 503 Q 2222 878 2363 1253 L 3600 4581 L 4219 4581 L 2425 0 L 1803 0 z" transform="scale(0.015625)"/></defs><use xlink:href="#ArialMT-56"/><use x="61.199" xlink:href="#ArialMT-65"/><use x="116.814" xlink:href="#ArialMT-67"/><use x="172.43" xlink:href="#ArialMT-65"/><use x="228.045" xlink:href="#ArialMT-74"/><use x="255.828" xlink:href="#ArialMT-61"/><use x="311.443" xlink:href="#ArialMT-62"/><use x="367.059" xlink:href="#ArialMT-6c"/><use x="389.275" xlink:href="#ArialMT-65"/><use x="444.891" xlink:href="#ArialMT-73"/></g></g><g id="text_30"><g style="fill:#262626" transform="translate(155.295343 143.936979) scale(0.1 -0.1)"><use xlink:href="#ArialMT-32"/><use x="55.615" xlink:href="#ArialMT-2e"/><use x="83.398" xlink:href="#ArialMT-33"/><use x="139.014" xlink:href="#ArialMT-25"/></g></g><g id="text_31"><g style="fill:#262626" transform="translate(90.047513 69.291048) scale(0.1 -0.1)"><use xlink:href="#ArialMT-50"/><use x="66.699" xlink:href="#ArialMT-65"/><use x="122.314" xlink:href="#ArialMT-61"/><use x="177.93" xlink:href="#ArialMT-72"/><use x="211.23" xlink:href="#ArialMT-6c"/><use x="233.447" xlink:href="#ArialMT-20"/><use x="261.23" xlink:href="#ArialMT-6d"/><use x="344.531" xlink:href="#ArialMT-69"/><use x="366.748" xlink:href="#ArialMT-6c"/><use x="388.965" xlink:href="#ArialMT-6c"/><use x="411.182" xlink:href="#ArialMT-65"/><use x="466.797" xlink:href="#ArialMT-74"/></g></g><g id="text_32"><g style="fill:#262626" transform="translate(165.799013 137.140927) scale(0.1 -0.1)"><use xlink:href="#ArialMT-31"/><use x="55.615" xlink:href="#ArialMT-2e"/><use x="83.398" xlink:href="#ArialMT-39"/><use x="139.014" xlink:href="#ArialMT-25"/></g></g><g id="text_33"><g style="fill:#262626" transform="translate(111.648965 60.969931) scale(0.1 -0.1)"><defs><path id="ArialMT-79" d="M 397 -1278 L 334 -750 Q 519 -800 656 -800 Q 844 -800 956 -737 Q 1069 -675 1141 -563 Q 1194 -478 1313 -144 Q 1328 -97 1363 -6 L 103 3319 L 709 3319 L 1400 1397 Q 1534 1031 1641 628 Q 1738 1016 1872 1384 L 2581 3319 L 3144 3319 L 1881 -56 Q 1678 -603 1566 -809 Q 1416 -1088 1222 -1217 Q 1028 -1347 759 -1347 Q 597 -1347 397 -1278 z" transform="scale(0.015625)"/></defs><use xlink:href="#ArialMT-53"/><use x="66.699" xlink:href="#ArialMT-6f"/><use x="122.314" xlink:href="#ArialMT-79"/><use x="172.314" xlink:href="#ArialMT-61"/><use x="227.93" xlink:href="#ArialMT-62"/><use x="283.545" xlink:href="#ArialMT-65"/><use x="339.16" xlink:href="#ArialMT-61"/><use x="394.775" xlink:href="#ArialMT-6e"/></g></g><g id="text_34"><g style="fill:#262626" transform="translate(175.170544 132.600857) scale(0.1 -0.1)"><use xlink:href="#ArialMT-31"/><use x="55.615" xlink:href="#ArialMT-2e"/><use x="83.398" xlink:href="#ArialMT-36"/><use x="139.014" xlink:href="#ArialMT-25"/></g></g><g id="text_35"><g style="fill:#262626" transform="translate(143.835968 55.195037) scale(0.1 -0.1)"><defs><path id="ArialMT-57" d="M 1294 0 L 78 4581 L 700 4581 L 1397 1578 Q 1509 1106 1591 641 Q 1766 1375 1797 1488 L 2669 4581 L 3400 4581 L 4056 2263 Q 4303 1400 4413 641 Q 4500 1075 4641 1638 L 5359 4581 L 5969 4581 L 4713 0 L 4128 0 L 3163 3491 Q 3041 3928 3019 4028 Q 2947 3713 2884 3491 L 1913 0 L 1294 0 z" transform="scale(0.015625)"/></defs><use xlink:href="#ArialMT-57"/><use x="94.385" xlink:href="#ArialMT-68"/><use x="150" xlink:href="#ArialMT-65"/><use x="205.615" xlink:href="#ArialMT-61"/><use x="261.23" xlink:href="#ArialMT-74"/></g></g><g id="text_36"><g style="fill:#262626" transform="translate(183.92567 129.452194) scale(0.1 -0.1)"><use xlink:href="#ArialMT-31"/><use x="55.615" xlink:href="#ArialMT-2e"/><use x="83.398" xlink:href="#ArialMT-36"/><use x="139.014" xlink:href="#ArialMT-25"/></g></g><g id="text_37"><g style="fill:#262626" transform="translate(119.42893 51.473883) scale(0.1 -0.1)"><defs><path id="ArialMT-4b" d="M 469 0 L 469 4581 L 1075 4581 L 1075 2309 L 3350 4581 L 4172 4581 L 2250 2725 L 4256 0 L 3456 0 L 1825 2319 L 1075 1588 L 1075 0 L 469 0 z" transform="scale(0.015625)"/></defs><use xlink:href="#ArialMT-4b"/><use x="66.699" xlink:href="#ArialMT-68"/><use x="122.314" xlink:href="#ArialMT-61"/><use x="177.93" xlink:href="#ArialMT-72"/><use x="211.23" xlink:href="#ArialMT-69"/><use x="233.447" xlink:href="#ArialMT-66"/><use x="261.23" xlink:href="#ArialMT-20"/><use x="289.014" xlink:href="#ArialMT-73"/><use x="339.014" xlink:href="#ArialMT-6f"/><use x="394.629" xlink:href="#ArialMT-72"/><use x="427.93" xlink:href="#ArialMT-67"/><use x="483.545" xlink:href="#ArialMT-68"/><use x="539.16" xlink:href="#ArialMT-75"/><use x="594.775" xlink:href="#ArialMT-6d"/></g></g><g id="text_38"><g style="fill:#262626" transform="translate(191.832627 127.421195) scale(0.1 -0.1)"><use xlink:href="#ArialMT-31"/><use x="55.615" xlink:href="#ArialMT-2e"/><use x="83.398" xlink:href="#ArialMT-32"/><use x="139.014" xlink:href="#ArialMT-25"/></g></g><g id="text_39"><g style="fill:#262626" transform="translate(173.350235 49.280093) scale(0.1 -0.1)"><use xlink:href="#ArialMT-4f"/><use x="77.783" xlink:href="#ArialMT-6e"/><use x="133.398" xlink:href="#ArialMT-69"/><use x="155.615" xlink:href="#ArialMT-6f"/><use x="211.23" xlink:href="#ArialMT-6e"/></g></g><g id="text_40"><g style="fill:#262626" transform="translate(198.814987 126.22586) scale(0.1 -0.1)"><use xlink:href="#ArialMT-31"/><use x="55.615" xlink:href="#ArialMT-2e"/><use x="83.398" xlink:href="#ArialMT-32"/><use x="139.014" xlink:href="#ArialMT-25"/></g></g><g id="text_41"><g style="fill:#262626" transform="translate(163.467152 48.37596) scale(0.1 -0.1)"><use xlink:href="#ArialMT-53"/><use x="66.699" xlink:href="#ArialMT-65"/><use x="122.314" xlink:href="#ArialMT-73"/><use x="172.314" xlink:href="#ArialMT-61"/><use x="227.93" xlink:href="#ArialMT-6d"/><use x="311.23" xlink:href="#ArialMT-75"/><use x="366.846" xlink:href="#ArialMT-6d"/></g></g><g id="text_42"><g style="fill:#262626" transform="translate(203.422225 125.732697) scale(0.1 -0.1)"><defs><path id="ArialMT-30" d="M 266 2259 Q 266 3072 433 3567 Q 600 4063 929 4331 Q 1259 4600 1759 4600 Q 2128 4600 2406 4451 Q 2684 4303 2865 4023 Q 3047 3744 3150 3342 Q 3253 2941 3253 2259 Q 3253 1453 3087 958 Q 2922 463 2592 192 Q 2263 -78 1759 -78 Q 1097 -78 719 397 Q 266 969 266 2259 z M 844 2259 Q 844 1131 1108 757 Q 1372 384 1759 384 Q 2147 384 2411 759 Q 2675 1134 2675 2259 Q 2675 3391 2411 3762 Q 2147 4134 1753 4134 Q 1366 4134 1134 3806 Q 844 3388 844 2259 z" transform="scale(0.015625)"/></defs><use xlink:href="#ArialMT-30"/><use x="55.615" xlink:href="#ArialMT-2e"/><use x="83.398" xlink:href="#ArialMT-34"/><use x="139.014" xlink:href="#ArialMT-25"/></g></g><g id="text_43"><g style="fill:#262626" transform="translate(171.062482 48.090172) scale(0.1 -0.1)"><use xlink:href="#ArialMT-53"/><use x="66.699" xlink:href="#ArialMT-61"/><use x="122.314" xlink:href="#ArialMT-66"/><use x="148.348" xlink:href="#ArialMT-66"/><use x="176.131" xlink:href="#ArialMT-6c"/><use x="198.348" xlink:href="#ArialMT-6f"/><use x="253.963" xlink:href="#ArialMT-77"/><use x="326.18" xlink:href="#ArialMT-65"/><use x="381.795" xlink:href="#ArialMT-72"/></g></g><g id="text_44"><g style="fill:#262626" transform="translate(205.653485 125.576813) scale(0.1 -0.1)"><use xlink:href="#ArialMT-30"/><use x="55.615" xlink:href="#ArialMT-2e"/><use x="83.398" xlink:href="#ArialMT-34"/><use x="139.014" xlink:href="#ArialMT-25"/></g></g><g id="text_45"><g style="fill:#262626" transform="translate(176.685614 47.920691) scale(0.1 -0.1)"><use xlink:href="#ArialMT-50"/><use x="66.699" xlink:href="#ArialMT-6f"/><use x="122.314" xlink:href="#ArialMT-74"/><use x="150.098" xlink:href="#ArialMT-61"/><use x="205.713" xlink:href="#ArialMT-74"/><use x="233.496" xlink:href="#ArialMT-6f"/><use x="289.111" xlink:href="#ArialMT-65"/><use x="344.727" xlink:href="#ArialMT-73"/></g></g><g id="text_46"><g style="fill:#262626" transform="translate(207.609284 125.484368) scale(0.1 -0.1)"><use xlink:href="#ArialMT-30"/><use x="55.615" xlink:href="#ArialMT-2e"/><use x="83.398" xlink:href="#ArialMT-33"/><use x="139.014" xlink:href="#ArialMT-25"/></g></g><g id="text_47"><g style="fill:#262626" transform="translate(187.447396 47.837396) scale(0.1 -0.1)"><use xlink:href="#ArialMT-46"/><use x="61.084" xlink:href="#ArialMT-6f"/><use x="116.699" xlink:href="#ArialMT-64"/><use x="172.314" xlink:href="#ArialMT-64"/><use x="227.93" xlink:href="#ArialMT-65"/><use x="283.545" xlink:href="#ArialMT-72"/></g></g><g id="text_48"><g style="fill:#262626" transform="translate(209.230767 125.438935) scale(0.1 -0.1)"><use xlink:href="#ArialMT-30"/><use x="55.615" xlink:href="#ArialMT-2e"/><use x="83.398" xlink:href="#ArialMT-33"/><use x="139.014" xlink:href="#ArialMT-25"/></g></g><g id="text_49"><g style="fill:#262626" transform="translate(191.584323 47.811229) scale(0.1 -0.1)"><use xlink:href="#ArialMT-43"/><use x="72.217" xlink:href="#ArialMT-61"/><use x="127.832" xlink:href="#ArialMT-73"/><use x="177.832" xlink:href="#ArialMT-74"/><use x="205.615" xlink:href="#ArialMT-6f"/><use x="261.23" xlink:href="#ArialMT-72"/></g></g><g id="text_50"><g style="fill:#262626" transform="translate(210.27108 125.424662) scale(0.1 -0.1)"><use xlink:href="#ArialMT-30"/><use x="55.615" xlink:href="#ArialMT-2e"/><use x="83.398" xlink:href="#ArialMT-31"/><use x="139.014" xlink:href="#ArialMT-25"/></g></g><g id="text_51"><g style="fill:#262626" transform="translate(186.842432 47.806486) scale(0.1 -0.1)"><defs><path id="ArialMT-4c" d="M 469 0 L 469 4581 L 1075 4581 L 1075 541 L 3331 541 L 3331 0 L 469 0 z" transform="scale(0.015625)"/></defs><use xlink:href="#ArialMT-4c"/><use x="55.615" xlink:href="#ArialMT-69"/><use x="77.832" xlink:href="#ArialMT-6e"/><use x="133.447" xlink:href="#ArialMT-73"/><use x="183.447" xlink:href="#ArialMT-65"/><use x="239.063" xlink:href="#ArialMT-65"/><use x="294.678" xlink:href="#ArialMT-64"/></g></g><g id="text_52"><g style="fill:#262626" transform="translate(210.725503 125.422075) scale(0.1 -0.1)"><use xlink:href="#ArialMT-30"/><use x="55.615" xlink:href="#ArialMT-2e"/><use x="83.398" xlink:href="#ArialMT-31"/><use x="139.014" xlink:href="#ArialMT-25"/></g></g><g id="text_53"><g style="fill:#262626" transform="translate(118.347193 47.805631) scale(0.1 -0.1)"><use xlink:href="#ArialMT-52"/><use x="72.217" xlink:href="#ArialMT-61"/><use x="127.832" xlink:href="#ArialMT-70"/><use x="183.447" xlink:href="#ArialMT-65"/><use x="239.063" xlink:href="#ArialMT-73"/><use x="289.063" xlink:href="#ArialMT-65"/><use x="344.678" xlink:href="#ArialMT-65"/><use x="400.293" xlink:href="#ArialMT-64"/><use x="455.908" xlink:href="#ArialMT-20"/><use x="483.691" xlink:href="#ArialMT-61"/><use x="539.307" xlink:href="#ArialMT-6e"/><use x="594.922" xlink:href="#ArialMT-64"/><use x="650.537" xlink:href="#ArialMT-20"/><use x="678.32" xlink:href="#ArialMT-6d"/><use x="761.621" xlink:href="#ArialMT-75"/><use x="817.236" xlink:href="#ArialMT-73"/><use x="867.236" xlink:href="#ArialMT-74"/><use x="895.02" xlink:href="#ArialMT-61"/><use x="950.635" xlink:href="#ArialMT-72"/><use x="983.936" xlink:href="#ArialMT-64"/></g></g><g id="text_54"><g style="fill:#262626" transform="translate(210.957361 125.421609) scale(0.1 -0.1)"><use xlink:href="#ArialMT-30"/><use x="55.615" xlink:href="#ArialMT-2e"/><use x="83.398" xlink:href="#ArialMT-30"/><use x="139.014" xlink:href="#ArialMT-25"/></g></g><g id="text_55"><g style="fill:#262626" transform="translate(25.410032 15.935625) scale(0.12 -0.12)"><defs><path id="ArialMT-41" d="M -9 0 L 1750 4581 L 2403 4581 L 4278 0 L 3588 0 L 3053 1388 L 1138 1388 L 634 0 L -9 0 z M 1313 1881 L 2866 1881 L 2388 3150 Q 2169 3728 2063 4100 Q 1975 3659 1816 3225 L 1313 1881 z" transform="scale(0.015625)"/><path id="ArialMT-76" d="M 1344 0 L 81 3319 L 675 3319 L 1388 1331 Q 1503 1009 1600 663 Q 1675 925 1809 1294 L 2547 3319 L 3125 3319 L 1869 0 L 1344 0 z" transform="scale(0.015625)"/><path id="ArialMT-2d" d="M 203 1375 L 203 1941 L 1931 1941 L 1931 1375 L 203 1375 z" transform="scale(0.015625)"/></defs><use xlink:href="#ArialMT-41"/><use x="64.949" xlink:href="#ArialMT-76"/><use x="114.949" xlink:href="#ArialMT-65"/><use x="170.564" xlink:href="#ArialMT-72"/><use x="203.865" xlink:href="#ArialMT-61"/><use x="259.48" xlink:href="#ArialMT-67"/><use x="315.096" xlink:href="#ArialMT-65"/><use x="370.711" xlink:href="#ArialMT-20"/><use x="398.494" xlink:href="#ArialMT-70"/><use x="454.109" xlink:href="#ArialMT-65"/><use x="509.725" xlink:href="#ArialMT-72"/><use x="543.025" xlink:href="#ArialMT-63"/><use x="593.025" xlink:href="#ArialMT-65"/><use x="648.641" xlink:href="#ArialMT-6e"/><use x="704.256" xlink:href="#ArialMT-74"/><use x="732.039" xlink:href="#ArialMT-61"/><use x="787.654" xlink:href="#ArialMT-67"/><use x="843.27" xlink:href="#ArialMT-65"/><use x="898.885" xlink:href="#ArialMT-20"/><use x="926.668" xlink:href="#ArialMT-6f"/><use x="982.283" xlink:href="#ArialMT-66"/><use x="1010.066" xlink:href="#ArialMT-20"/><use x="1037.85" xlink:href="#ArialMT-61"/><use x="1093.465" xlink:href="#ArialMT-72"/><use x="1126.766" xlink:href="#ArialMT-65"/><use x="1182.381" xlink:href="#ArialMT-61"/><use x="1237.996" xlink:href="#ArialMT-20"/><use x="1265.779" xlink:href="#ArialMT-64"/><use x="1321.395" xlink:href="#ArialMT-65"/><use x="1377.01" xlink:href="#ArialMT-64"/><use x="1432.625" xlink:href="#ArialMT-69"/><use x="1454.842" xlink:href="#ArialMT-63"/><use x="1504.842" xlink:href="#ArialMT-61"/><use x="1560.457" xlink:href="#ArialMT-74"/><use x="1588.24" xlink:href="#ArialMT-65"/><use x="1643.855" xlink:href="#ArialMT-64"/><use x="1699.471" xlink:href="#ArialMT-20"/><use x="1727.254" xlink:href="#ArialMT-74"/><use x="1755.037" xlink:href="#ArialMT-6f"/><use x="1810.652" xlink:href="#ArialMT-20"/><use x="1838.436" xlink:href="#ArialMT-63"/><use x="1888.436" xlink:href="#ArialMT-72"/><use x="1921.736" xlink:href="#ArialMT-6f"/><use x="1977.352" xlink:href="#ArialMT-70"/><use x="2032.967" xlink:href="#ArialMT-73"/><use x="2082.967" xlink:href="#ArialMT-20"/><use x="2110.75" xlink:href="#ArialMT-69"/><use x="2132.967" xlink:href="#ArialMT-6e"/><use x="2188.582" xlink:href="#ArialMT-20"/><use x="2216.365" xlink:href="#ArialMT-4b"/><use x="2283.064" xlink:href="#ArialMT-61"/><use x="2338.68" xlink:href="#ArialMT-72"/><use x="2371.98" xlink:href="#ArialMT-6e"/><use x="2427.596" xlink:href="#ArialMT-61"/><use x="2483.211" xlink:href="#ArialMT-74"/><use x="2510.994" xlink:href="#ArialMT-61"/><use x="2566.609" xlink:href="#ArialMT-6b"/><use x="2616.609" xlink:href="#ArialMT-61"/><use x="2672.225" xlink:href="#ArialMT-20"/><use x="2700.008" xlink:href="#ArialMT-69"/><use x="2722.225" xlink:href="#ArialMT-6e"/><use x="2777.84" xlink:href="#ArialMT-20"/><use x="2805.623" xlink:href="#ArialMT-32"/><use x="2861.238" xlink:href="#ArialMT-30"/><use x="2916.854" xlink:href="#ArialMT-30"/><use x="2972.469" xlink:href="#ArialMT-38"/><use x="3028.084" xlink:href="#ArialMT-2d"/><use x="3061.385" xlink:href="#ArialMT-32"/><use x="3117" xlink:href="#ArialMT-30"/><use x="3172.615" xlink:href="#ArialMT-31"/><use x="3228.23" xlink:href="#ArialMT-37"/></g></g></g></g></svg>