<?xml version="1.0" encoding="utf-8" standalone="no"?>
<!DOCTYPE svg PUBLIC "-//W3C//DTD SVG 1.1//EN"
  "http://www.w3.org/Graphics/SVG/1.1/DTD/svg11.dtd">
<svg xmlns:xlink="http://www.w3.org/1999/xlink" width="830.43125pt" height="391.06625pt" viewBox="0 0 830.43125 391.06625" xmlns="http://www.w3.org/2000/svg" version="1.1">
 <metadata>
  <rdf:RDF xmlns:dc="http://purl.org/dc/elements/1.1/" xmlns:cc="http://creativecommons.org/ns#" xmlns:rdf="http://www.w3.org/1999/02/22-rdf-syntax-ns#">
   <cc:Work>
    <dc:type rdf:resource="http://purl.org/dc/dcmitype/StillImage"/>
    <dc:date>2023-05-16T16:16:10.935472</dc:date>
    <dc:format>image/svg+xml</dc:format>
    <dc:creator>
     <cc:Agent>
      <dc:title>Matplotlib v3.7.1, https://matplotlib.org/</dc:title>
     </cc:Agent>
    </dc:creator>
   </cc:Work>
  </rdf:RDF>
 </metadata>
 <defs>
  <style type="text/css">*{stroke-linejoin: round; stroke-linecap: butt}</style>
 </defs>
 <g id="figure_1">
  <g id="patch_1">
   <path d="M 0 391.06625 
L 830.43125 391.06625 
L 830.43125 0 
L 0 0 
z
" style="fill: #ffffff"/>
  </g>
  <g id="axes_1">
   <g id="patch_2">
    <path d="M 49.828125 354.575625 
L 719.428125 354.575625 
L 719.428125 21.935625 
L 49.828125 21.935625 
z
" style="fill: #eaeaf2"/>
   </g>
   <g id="matplotlib.axis_1">
    <g id="xtick_1">
     <g id="line2d_1">
      <path d="M 128.007804 354.575625 
L 128.007804 21.935625 
" clip-path="url(#p733589072a)" style="fill: none; stroke: #ffffff; stroke-width: 0.8; stroke-linecap: round"/>
     </g>
     <g id="text_1">
      <!-- 1970 -->
      <g style="fill: #262626" transform="translate(116.885929 368.733438) scale(0.1 -0.1)">
       <defs>
        <path id="ArialMT-31" d="M 2384 0 
L 1822 0 
L 1822 3584 
Q 1619 3391 1289 3197 
Q 959 3003 697 2906 
L 697 3450 
Q 1169 3672 1522 3987 
Q 1875 4303 2022 4600 
L 2384 4600 
L 2384 0 
z
" transform="scale(0.015625)"/>
        <path id="ArialMT-39" d="M 350 1059 
L 891 1109 
Q 959 728 1153 556 
Q 1347 384 1650 384 
Q 1909 384 2104 503 
Q 2300 622 2425 820 
Q 2550 1019 2634 1356 
Q 2719 1694 2719 2044 
Q 2719 2081 2716 2156 
Q 2547 1888 2255 1720 
Q 1963 1553 1622 1553 
Q 1053 1553 659 1965 
Q 266 2378 266 3053 
Q 266 3750 677 4175 
Q 1088 4600 1706 4600 
Q 2153 4600 2523 4359 
Q 2894 4119 3086 3673 
Q 3278 3228 3278 2384 
Q 3278 1506 3087 986 
Q 2897 466 2520 194 
Q 2144 -78 1638 -78 
Q 1100 -78 759 220 
Q 419 519 350 1059 
z
M 2653 3081 
Q 2653 3566 2395 3850 
Q 2138 4134 1775 4134 
Q 1400 4134 1122 3828 
Q 844 3522 844 3034 
Q 844 2597 1108 2323 
Q 1372 2050 1759 2050 
Q 2150 2050 2401 2323 
Q 2653 2597 2653 3081 
z
" transform="scale(0.015625)"/>
        <path id="ArialMT-37" d="M 303 3981 
L 303 4522 
L 3269 4522 
L 3269 4084 
Q 2831 3619 2401 2847 
Q 1972 2075 1738 1259 
Q 1569 684 1522 0 
L 944 0 
Q 953 541 1156 1306 
Q 1359 2072 1739 2783 
Q 2119 3494 2547 3981 
L 303 3981 
z
" transform="scale(0.015625)"/>
        <path id="ArialMT-30" d="M 266 2259 
Q 266 3072 433 3567 
Q 600 4063 929 4331 
Q 1259 4600 1759 4600 
Q 2128 4600 2406 4451 
Q 2684 4303 2865 4023 
Q 3047 3744 3150 3342 
Q 3253 2941 3253 2259 
Q 3253 1453 3087 958 
Q 2922 463 2592 192 
Q 2263 -78 1759 -78 
Q 1097 -78 719 397 
Q 266 969 266 2259 
z
M 844 2259 
Q 844 1131 1108 757 
Q 1372 384 1759 384 
Q 2147 384 2411 759 
Q 2675 1134 2675 2259 
Q 2675 3391 2411 3762 
Q 2147 4134 1753 4134 
Q 1366 4134 1134 3806 
Q 844 3388 844 2259 
z
" transform="scale(0.015625)"/>
       </defs>
       <use xlink:href="#ArialMT-31"/>
       <use xlink:href="#ArialMT-39" x="55.615234"/>
       <use xlink:href="#ArialMT-37" x="111.230469"/>
       <use xlink:href="#ArialMT-30" x="166.845703"/>
      </g>
     </g>
    </g>
    <g id="xtick_2">
     <g id="line2d_2">
      <path d="M 247.366093 354.575625 
L 247.366093 21.935625 
" clip-path="url(#p733589072a)" style="fill: none; stroke: #ffffff; stroke-width: 0.8; stroke-linecap: round"/>
     </g>
     <g id="text_2">
      <!-- 1980 -->
      <g style="fill: #262626" transform="translate(236.244218 368.733438) scale(0.1 -0.1)">
       <defs>
        <path id="ArialMT-38" d="M 1131 2484 
Q 781 2613 612 2850 
Q 444 3088 444 3419 
Q 444 3919 803 4259 
Q 1163 4600 1759 4600 
Q 2359 4600 2725 4251 
Q 3091 3903 3091 3403 
Q 3091 3084 2923 2848 
Q 2756 2613 2416 2484 
Q 2838 2347 3058 2040 
Q 3278 1734 3278 1309 
Q 3278 722 2862 322 
Q 2447 -78 1769 -78 
Q 1091 -78 675 323 
Q 259 725 259 1325 
Q 259 1772 486 2073 
Q 713 2375 1131 2484 
z
M 1019 3438 
Q 1019 3113 1228 2906 
Q 1438 2700 1772 2700 
Q 2097 2700 2305 2904 
Q 2513 3109 2513 3406 
Q 2513 3716 2298 3927 
Q 2084 4138 1766 4138 
Q 1444 4138 1231 3931 
Q 1019 3725 1019 3438 
z
M 838 1322 
Q 838 1081 952 856 
Q 1066 631 1291 507 
Q 1516 384 1775 384 
Q 2178 384 2440 643 
Q 2703 903 2703 1303 
Q 2703 1709 2433 1975 
Q 2163 2241 1756 2241 
Q 1359 2241 1098 1978 
Q 838 1716 838 1322 
z
" transform="scale(0.015625)"/>
       </defs>
       <use xlink:href="#ArialMT-31"/>
       <use xlink:href="#ArialMT-39" x="55.615234"/>
       <use xlink:href="#ArialMT-38" x="111.230469"/>
       <use xlink:href="#ArialMT-30" x="166.845703"/>
      </g>
     </g>
    </g>
    <g id="xtick_3">
     <g id="line2d_3">
      <path d="M 366.724382 354.575625 
L 366.724382 21.935625 
" clip-path="url(#p733589072a)" style="fill: none; stroke: #ffffff; stroke-width: 0.8; stroke-linecap: round"/>
     </g>
     <g id="text_3">
      <!-- 1990 -->
      <g style="fill: #262626" transform="translate(355.602507 368.733438) scale(0.1 -0.1)">
       <use xlink:href="#ArialMT-31"/>
       <use xlink:href="#ArialMT-39" x="55.615234"/>
       <use xlink:href="#ArialMT-39" x="111.230469"/>
       <use xlink:href="#ArialMT-30" x="166.845703"/>
      </g>
     </g>
    </g>
    <g id="xtick_4">
     <g id="line2d_4">
      <path d="M 486.08267 354.575625 
L 486.08267 21.935625 
" clip-path="url(#p733589072a)" style="fill: none; stroke: #ffffff; stroke-width: 0.8; stroke-linecap: round"/>
     </g>
     <g id="text_4">
      <!-- 2000 -->
      <g style="fill: #262626" transform="translate(474.960795 368.733438) scale(0.1 -0.1)">
       <defs>
        <path id="ArialMT-32" d="M 3222 541 
L 3222 0 
L 194 0 
Q 188 203 259 391 
Q 375 700 629 1000 
Q 884 1300 1366 1694 
Q 2113 2306 2375 2664 
Q 2638 3022 2638 3341 
Q 2638 3675 2398 3904 
Q 2159 4134 1775 4134 
Q 1369 4134 1125 3890 
Q 881 3647 878 3216 
L 300 3275 
Q 359 3922 746 4261 
Q 1134 4600 1788 4600 
Q 2447 4600 2831 4234 
Q 3216 3869 3216 3328 
Q 3216 3053 3103 2787 
Q 2991 2522 2730 2228 
Q 2469 1934 1863 1422 
Q 1356 997 1212 845 
Q 1069 694 975 541 
L 3222 541 
z
" transform="scale(0.015625)"/>
       </defs>
       <use xlink:href="#ArialMT-32"/>
       <use xlink:href="#ArialMT-30" x="55.615234"/>
       <use xlink:href="#ArialMT-30" x="111.230469"/>
       <use xlink:href="#ArialMT-30" x="166.845703"/>
      </g>
     </g>
    </g>
    <g id="xtick_5">
     <g id="line2d_5">
      <path d="M 605.440959 354.575625 
L 605.440959 21.935625 
" clip-path="url(#p733589072a)" style="fill: none; stroke: #ffffff; stroke-width: 0.8; stroke-linecap: round"/>
     </g>
     <g id="text_5">
      <!-- 2010 -->
      <g style="fill: #262626" transform="translate(594.319084 368.733438) scale(0.1 -0.1)">
       <use xlink:href="#ArialMT-32"/>
       <use xlink:href="#ArialMT-30" x="55.615234"/>
       <use xlink:href="#ArialMT-31" x="111.230469"/>
       <use xlink:href="#ArialMT-30" x="166.845703"/>
      </g>
     </g>
    </g>
    <g id="text_6">
     <!-- Year -->
     <g style="fill: #262626" transform="translate(374.523438 381.87875) scale(0.1 -0.1)">
      <defs>
       <path id="ArialMT-59" d="M 1784 0 
L 1784 1941 
L 19 4581 
L 756 4581 
L 1659 3200 
Q 1909 2813 2125 2425 
Q 2331 2784 2625 3234 
L 3513 4581 
L 4219 4581 
L 2391 1941 
L 2391 0 
L 1784 0 
z
" transform="scale(0.015625)"/>
       <path id="ArialMT-65" d="M 2694 1069 
L 3275 997 
Q 3138 488 2766 206 
Q 2394 -75 1816 -75 
Q 1088 -75 661 373 
Q 234 822 234 1631 
Q 234 2469 665 2931 
Q 1097 3394 1784 3394 
Q 2450 3394 2872 2941 
Q 3294 2488 3294 1666 
Q 3294 1616 3291 1516 
L 816 1516 
Q 847 969 1125 678 
Q 1403 388 1819 388 
Q 2128 388 2347 550 
Q 2566 713 2694 1069 
z
M 847 1978 
L 2700 1978 
Q 2663 2397 2488 2606 
Q 2219 2931 1791 2931 
Q 1403 2931 1139 2672 
Q 875 2413 847 1978 
z
" transform="scale(0.015625)"/>
       <path id="ArialMT-61" d="M 2588 409 
Q 2275 144 1986 34 
Q 1697 -75 1366 -75 
Q 819 -75 525 192 
Q 231 459 231 875 
Q 231 1119 342 1320 
Q 453 1522 633 1644 
Q 813 1766 1038 1828 
Q 1203 1872 1538 1913 
Q 2219 1994 2541 2106 
Q 2544 2222 2544 2253 
Q 2544 2597 2384 2738 
Q 2169 2928 1744 2928 
Q 1347 2928 1158 2789 
Q 969 2650 878 2297 
L 328 2372 
Q 403 2725 575 2942 
Q 747 3159 1072 3276 
Q 1397 3394 1825 3394 
Q 2250 3394 2515 3294 
Q 2781 3194 2906 3042 
Q 3031 2891 3081 2659 
Q 3109 2516 3109 2141 
L 3109 1391 
Q 3109 606 3145 398 
Q 3181 191 3288 0 
L 2700 0 
Q 2613 175 2588 409 
z
M 2541 1666 
Q 2234 1541 1622 1453 
Q 1275 1403 1131 1340 
Q 988 1278 909 1158 
Q 831 1038 831 891 
Q 831 666 1001 516 
Q 1172 366 1500 366 
Q 1825 366 2078 508 
Q 2331 650 2450 897 
Q 2541 1088 2541 1459 
L 2541 1666 
z
" transform="scale(0.015625)"/>
       <path id="ArialMT-72" d="M 416 0 
L 416 3319 
L 922 3319 
L 922 2816 
Q 1116 3169 1280 3281 
Q 1444 3394 1641 3394 
Q 1925 3394 2219 3213 
L 2025 2691 
Q 1819 2813 1613 2813 
Q 1428 2813 1281 2702 
Q 1134 2591 1072 2394 
Q 978 2094 978 1738 
L 978 0 
L 416 0 
z
" transform="scale(0.015625)"/>
      </defs>
      <use xlink:href="#ArialMT-59"/>
      <use xlink:href="#ArialMT-65" x="57.574219"/>
      <use xlink:href="#ArialMT-61" x="113.189453"/>
      <use xlink:href="#ArialMT-72" x="168.804688"/>
     </g>
    </g>
   </g>
   <g id="matplotlib.axis_2">
    <g id="ytick_1">
     <g id="line2d_6">
      <path d="M 49.828125 339.455625 
L 719.428125 339.455625 
" clip-path="url(#p733589072a)" style="fill: none; stroke: #ffffff; stroke-width: 0.8; stroke-linecap: round"/>
     </g>
     <g id="text_7">
      <!-- 0 -->
      <g style="fill: #262626" transform="translate(37.267188 343.034531) scale(0.1 -0.1)">
       <use xlink:href="#ArialMT-30"/>
      </g>
     </g>
    </g>
    <g id="ytick_2">
     <g id="line2d_7">
      <path d="M 49.828125 301.148535 
L 719.428125 301.148535 
" clip-path="url(#p733589072a)" style="fill: none; stroke: #ffffff; stroke-width: 0.8; stroke-linecap: round"/>
     </g>
     <g id="text_8">
      <!-- 1000 -->
      <g style="fill: #262626" transform="translate(20.584375 304.727441) scale(0.1 -0.1)">
       <use xlink:href="#ArialMT-31"/>
       <use xlink:href="#ArialMT-30" x="55.615234"/>
       <use xlink:href="#ArialMT-30" x="111.230469"/>
       <use xlink:href="#ArialMT-30" x="166.845703"/>
      </g>
     </g>
    </g>
    <g id="ytick_3">
     <g id="line2d_8">
      <path d="M 49.828125 262.841445 
L 719.428125 262.841445 
" clip-path="url(#p733589072a)" style="fill: none; stroke: #ffffff; stroke-width: 0.8; stroke-linecap: round"/>
     </g>
     <g id="text_9">
      <!-- 2000 -->
      <g style="fill: #262626" transform="translate(20.584375 266.420351) scale(0.1 -0.1)">
       <use xlink:href="#ArialMT-32"/>
       <use xlink:href="#ArialMT-30" x="55.615234"/>
       <use xlink:href="#ArialMT-30" x="111.230469"/>
       <use xlink:href="#ArialMT-30" x="166.845703"/>
      </g>
     </g>
    </g>
    <g id="ytick_4">
     <g id="line2d_9">
      <path d="M 49.828125 224.534355 
L 719.428125 224.534355 
" clip-path="url(#p733589072a)" style="fill: none; stroke: #ffffff; stroke-width: 0.8; stroke-linecap: round"/>
     </g>
     <g id="text_10">
      <!-- 3000 -->
      <g style="fill: #262626" transform="translate(20.584375 228.113261) scale(0.1 -0.1)">
       <defs>
        <path id="ArialMT-33" d="M 269 1209 
L 831 1284 
Q 928 806 1161 595 
Q 1394 384 1728 384 
Q 2125 384 2398 659 
Q 2672 934 2672 1341 
Q 2672 1728 2419 1979 
Q 2166 2231 1775 2231 
Q 1616 2231 1378 2169 
L 1441 2663 
Q 1497 2656 1531 2656 
Q 1891 2656 2178 2843 
Q 2466 3031 2466 3422 
Q 2466 3731 2256 3934 
Q 2047 4138 1716 4138 
Q 1388 4138 1169 3931 
Q 950 3725 888 3313 
L 325 3413 
Q 428 3978 793 4289 
Q 1159 4600 1703 4600 
Q 2078 4600 2393 4439 
Q 2709 4278 2876 4000 
Q 3044 3722 3044 3409 
Q 3044 3113 2884 2869 
Q 2725 2625 2413 2481 
Q 2819 2388 3044 2092 
Q 3269 1797 3269 1353 
Q 3269 753 2831 336 
Q 2394 -81 1725 -81 
Q 1122 -81 723 278 
Q 325 638 269 1209 
z
" transform="scale(0.015625)"/>
       </defs>
       <use xlink:href="#ArialMT-33"/>
       <use xlink:href="#ArialMT-30" x="55.615234"/>
       <use xlink:href="#ArialMT-30" x="111.230469"/>
       <use xlink:href="#ArialMT-30" x="166.845703"/>
      </g>
     </g>
    </g>
    <g id="ytick_5">
     <g id="line2d_10">
      <path d="M 49.828125 186.227265 
L 719.428125 186.227265 
" clip-path="url(#p733589072a)" style="fill: none; stroke: #ffffff; stroke-width: 0.8; stroke-linecap: round"/>
     </g>
     <g id="text_11">
      <!-- 4000 -->
      <g style="fill: #262626" transform="translate(20.584375 189.806171) scale(0.1 -0.1)">
       <defs>
        <path id="ArialMT-34" d="M 2069 0 
L 2069 1097 
L 81 1097 
L 81 1613 
L 2172 4581 
L 2631 4581 
L 2631 1613 
L 3250 1613 
L 3250 1097 
L 2631 1097 
L 2631 0 
L 2069 0 
z
M 2069 1613 
L 2069 3678 
L 634 1613 
L 2069 1613 
z
" transform="scale(0.015625)"/>
       </defs>
       <use xlink:href="#ArialMT-34"/>
       <use xlink:href="#ArialMT-30" x="55.615234"/>
       <use xlink:href="#ArialMT-30" x="111.230469"/>
       <use xlink:href="#ArialMT-30" x="166.845703"/>
      </g>
     </g>
    </g>
    <g id="ytick_6">
     <g id="line2d_11">
      <path d="M 49.828125 147.920174 
L 719.428125 147.920174 
" clip-path="url(#p733589072a)" style="fill: none; stroke: #ffffff; stroke-width: 0.8; stroke-linecap: round"/>
     </g>
     <g id="text_12">
      <!-- 5000 -->
      <g style="fill: #262626" transform="translate(20.584375 151.499081) scale(0.1 -0.1)">
       <defs>
        <path id="ArialMT-35" d="M 266 1200 
L 856 1250 
Q 922 819 1161 601 
Q 1400 384 1738 384 
Q 2144 384 2425 690 
Q 2706 997 2706 1503 
Q 2706 1984 2436 2262 
Q 2166 2541 1728 2541 
Q 1456 2541 1237 2417 
Q 1019 2294 894 2097 
L 366 2166 
L 809 4519 
L 3088 4519 
L 3088 3981 
L 1259 3981 
L 1013 2750 
Q 1425 3038 1878 3038 
Q 2478 3038 2890 2622 
Q 3303 2206 3303 1553 
Q 3303 931 2941 478 
Q 2500 -78 1738 -78 
Q 1113 -78 717 272 
Q 322 622 266 1200 
z
" transform="scale(0.015625)"/>
       </defs>
       <use xlink:href="#ArialMT-35"/>
       <use xlink:href="#ArialMT-30" x="55.615234"/>
       <use xlink:href="#ArialMT-30" x="111.230469"/>
       <use xlink:href="#ArialMT-30" x="166.845703"/>
      </g>
     </g>
    </g>
    <g id="ytick_7">
     <g id="line2d_12">
      <path d="M 49.828125 109.613084 
L 719.428125 109.613084 
" clip-path="url(#p733589072a)" style="fill: none; stroke: #ffffff; stroke-width: 0.8; stroke-linecap: round"/>
     </g>
     <g id="text_13">
      <!-- 6000 -->
      <g style="fill: #262626" transform="translate(20.584375 113.191991) scale(0.1 -0.1)">
       <defs>
        <path id="ArialMT-36" d="M 3184 3459 
L 2625 3416 
Q 2550 3747 2413 3897 
Q 2184 4138 1850 4138 
Q 1581 4138 1378 3988 
Q 1113 3794 959 3422 
Q 806 3050 800 2363 
Q 1003 2672 1297 2822 
Q 1591 2972 1913 2972 
Q 2475 2972 2870 2558 
Q 3266 2144 3266 1488 
Q 3266 1056 3080 686 
Q 2894 316 2569 119 
Q 2244 -78 1831 -78 
Q 1128 -78 684 439 
Q 241 956 241 2144 
Q 241 3472 731 4075 
Q 1159 4600 1884 4600 
Q 2425 4600 2770 4297 
Q 3116 3994 3184 3459 
z
M 888 1484 
Q 888 1194 1011 928 
Q 1134 663 1356 523 
Q 1578 384 1822 384 
Q 2178 384 2434 671 
Q 2691 959 2691 1453 
Q 2691 1928 2437 2201 
Q 2184 2475 1800 2475 
Q 1419 2475 1153 2201 
Q 888 1928 888 1484 
z
" transform="scale(0.015625)"/>
       </defs>
       <use xlink:href="#ArialMT-36"/>
       <use xlink:href="#ArialMT-30" x="55.615234"/>
       <use xlink:href="#ArialMT-30" x="111.230469"/>
       <use xlink:href="#ArialMT-30" x="166.845703"/>
      </g>
     </g>
    </g>
    <g id="ytick_8">
     <g id="line2d_13">
      <path d="M 49.828125 71.305994 
L 719.428125 71.305994 
" clip-path="url(#p733589072a)" style="fill: none; stroke: #ffffff; stroke-width: 0.8; stroke-linecap: round"/>
     </g>
     <g id="text_14">
      <!-- 7000 -->
      <g style="fill: #262626" transform="translate(20.584375 74.884901) scale(0.1 -0.1)">
       <use xlink:href="#ArialMT-37"/>
       <use xlink:href="#ArialMT-30" x="55.615234"/>
       <use xlink:href="#ArialMT-30" x="111.230469"/>
       <use xlink:href="#ArialMT-30" x="166.845703"/>
      </g>
     </g>
    </g>
    <g id="ytick_9">
     <g id="line2d_14">
      <path d="M 49.828125 32.998904 
L 719.428125 32.998904 
" clip-path="url(#p733589072a)" style="fill: none; stroke: #ffffff; stroke-width: 0.8; stroke-linecap: round"/>
     </g>
     <g id="text_15">
      <!-- 8000 -->
      <g style="fill: #262626" transform="translate(20.584375 36.57781) scale(0.1 -0.1)">
       <use xlink:href="#ArialMT-38"/>
       <use xlink:href="#ArialMT-30" x="55.615234"/>
       <use xlink:href="#ArialMT-30" x="111.230469"/>
       <use xlink:href="#ArialMT-30" x="166.845703"/>
      </g>
     </g>
    </g>
    <g id="text_16">
     <!-- Production (1000 tons) -->
     <g style="fill: #262626" transform="translate(14.479688 238.837656) rotate(-90) scale(0.1 -0.1)">
      <defs>
       <path id="ArialMT-50" d="M 494 0 
L 494 4581 
L 2222 4581 
Q 2678 4581 2919 4538 
Q 3256 4481 3484 4323 
Q 3713 4166 3852 3881 
Q 3991 3597 3991 3256 
Q 3991 2672 3619 2267 
Q 3247 1863 2275 1863 
L 1100 1863 
L 1100 0 
L 494 0 
z
M 1100 2403 
L 2284 2403 
Q 2872 2403 3119 2622 
Q 3366 2841 3366 3238 
Q 3366 3525 3220 3729 
Q 3075 3934 2838 4000 
Q 2684 4041 2272 4041 
L 1100 4041 
L 1100 2403 
z
" transform="scale(0.015625)"/>
       <path id="ArialMT-6f" d="M 213 1659 
Q 213 2581 725 3025 
Q 1153 3394 1769 3394 
Q 2453 3394 2887 2945 
Q 3322 2497 3322 1706 
Q 3322 1066 3130 698 
Q 2938 331 2570 128 
Q 2203 -75 1769 -75 
Q 1072 -75 642 372 
Q 213 819 213 1659 
z
M 791 1659 
Q 791 1022 1069 705 
Q 1347 388 1769 388 
Q 2188 388 2466 706 
Q 2744 1025 2744 1678 
Q 2744 2294 2464 2611 
Q 2184 2928 1769 2928 
Q 1347 2928 1069 2612 
Q 791 2297 791 1659 
z
" transform="scale(0.015625)"/>
       <path id="ArialMT-64" d="M 2575 0 
L 2575 419 
Q 2259 -75 1647 -75 
Q 1250 -75 917 144 
Q 584 363 401 755 
Q 219 1147 219 1656 
Q 219 2153 384 2558 
Q 550 2963 881 3178 
Q 1213 3394 1622 3394 
Q 1922 3394 2156 3267 
Q 2391 3141 2538 2938 
L 2538 4581 
L 3097 4581 
L 3097 0 
L 2575 0 
z
M 797 1656 
Q 797 1019 1065 703 
Q 1334 388 1700 388 
Q 2069 388 2326 689 
Q 2584 991 2584 1609 
Q 2584 2291 2321 2609 
Q 2059 2928 1675 2928 
Q 1300 2928 1048 2622 
Q 797 2316 797 1656 
z
" transform="scale(0.015625)"/>
       <path id="ArialMT-75" d="M 2597 0 
L 2597 488 
Q 2209 -75 1544 -75 
Q 1250 -75 995 37 
Q 741 150 617 320 
Q 494 491 444 738 
Q 409 903 409 1263 
L 409 3319 
L 972 3319 
L 972 1478 
Q 972 1038 1006 884 
Q 1059 663 1231 536 
Q 1403 409 1656 409 
Q 1909 409 2131 539 
Q 2353 669 2445 892 
Q 2538 1116 2538 1541 
L 2538 3319 
L 3100 3319 
L 3100 0 
L 2597 0 
z
" transform="scale(0.015625)"/>
       <path id="ArialMT-63" d="M 2588 1216 
L 3141 1144 
Q 3050 572 2676 248 
Q 2303 -75 1759 -75 
Q 1078 -75 664 370 
Q 250 816 250 1647 
Q 250 2184 428 2587 
Q 606 2991 970 3192 
Q 1334 3394 1763 3394 
Q 2303 3394 2647 3120 
Q 2991 2847 3088 2344 
L 2541 2259 
Q 2463 2594 2264 2762 
Q 2066 2931 1784 2931 
Q 1359 2931 1093 2626 
Q 828 2322 828 1663 
Q 828 994 1084 691 
Q 1341 388 1753 388 
Q 2084 388 2306 591 
Q 2528 794 2588 1216 
z
" transform="scale(0.015625)"/>
       <path id="ArialMT-74" d="M 1650 503 
L 1731 6 
Q 1494 -44 1306 -44 
Q 1000 -44 831 53 
Q 663 150 594 308 
Q 525 466 525 972 
L 525 2881 
L 113 2881 
L 113 3319 
L 525 3319 
L 525 4141 
L 1084 4478 
L 1084 3319 
L 1650 3319 
L 1650 2881 
L 1084 2881 
L 1084 941 
Q 1084 700 1114 631 
Q 1144 563 1211 522 
Q 1278 481 1403 481 
Q 1497 481 1650 503 
z
" transform="scale(0.015625)"/>
       <path id="ArialMT-69" d="M 425 3934 
L 425 4581 
L 988 4581 
L 988 3934 
L 425 3934 
z
M 425 0 
L 425 3319 
L 988 3319 
L 988 0 
L 425 0 
z
" transform="scale(0.015625)"/>
       <path id="ArialMT-6e" d="M 422 0 
L 422 3319 
L 928 3319 
L 928 2847 
Q 1294 3394 1984 3394 
Q 2284 3394 2536 3286 
Q 2788 3178 2913 3003 
Q 3038 2828 3088 2588 
Q 3119 2431 3119 2041 
L 3119 0 
L 2556 0 
L 2556 2019 
Q 2556 2363 2490 2533 
Q 2425 2703 2258 2804 
Q 2091 2906 1866 2906 
Q 1506 2906 1245 2678 
Q 984 2450 984 1813 
L 984 0 
L 422 0 
z
" transform="scale(0.015625)"/>
       <path id="ArialMT-20" transform="scale(0.015625)"/>
       <path id="ArialMT-28" d="M 1497 -1347 
Q 1031 -759 709 28 
Q 388 816 388 1659 
Q 388 2403 628 3084 
Q 909 3875 1497 4659 
L 1900 4659 
Q 1522 4009 1400 3731 
Q 1209 3300 1100 2831 
Q 966 2247 966 1656 
Q 966 153 1900 -1347 
L 1497 -1347 
z
" transform="scale(0.015625)"/>
       <path id="ArialMT-73" d="M 197 991 
L 753 1078 
Q 800 744 1014 566 
Q 1228 388 1613 388 
Q 2000 388 2187 545 
Q 2375 703 2375 916 
Q 2375 1106 2209 1216 
Q 2094 1291 1634 1406 
Q 1016 1563 777 1677 
Q 538 1791 414 1992 
Q 291 2194 291 2438 
Q 291 2659 392 2848 
Q 494 3038 669 3163 
Q 800 3259 1026 3326 
Q 1253 3394 1513 3394 
Q 1903 3394 2198 3281 
Q 2494 3169 2634 2976 
Q 2775 2784 2828 2463 
L 2278 2388 
Q 2241 2644 2061 2787 
Q 1881 2931 1553 2931 
Q 1166 2931 1000 2803 
Q 834 2675 834 2503 
Q 834 2394 903 2306 
Q 972 2216 1119 2156 
Q 1203 2125 1616 2013 
Q 2213 1853 2448 1751 
Q 2684 1650 2818 1456 
Q 2953 1263 2953 975 
Q 2953 694 2789 445 
Q 2625 197 2315 61 
Q 2006 -75 1616 -75 
Q 969 -75 630 194 
Q 291 463 197 991 
z
" transform="scale(0.015625)"/>
       <path id="ArialMT-29" d="M 791 -1347 
L 388 -1347 
Q 1322 153 1322 1656 
Q 1322 2244 1188 2822 
Q 1081 3291 891 3722 
Q 769 4003 388 4659 
L 791 4659 
Q 1378 3875 1659 3084 
Q 1900 2403 1900 1659 
Q 1900 816 1576 28 
Q 1253 -759 791 -1347 
z
" transform="scale(0.015625)"/>
      </defs>
      <use xlink:href="#ArialMT-50"/>
      <use xlink:href="#ArialMT-72" x="66.699219"/>
      <use xlink:href="#ArialMT-6f" x="100"/>
      <use xlink:href="#ArialMT-64" x="155.615234"/>
      <use xlink:href="#ArialMT-75" x="211.230469"/>
      <use xlink:href="#ArialMT-63" x="266.845703"/>
      <use xlink:href="#ArialMT-74" x="316.845703"/>
      <use xlink:href="#ArialMT-69" x="344.628906"/>
      <use xlink:href="#ArialMT-6f" x="366.845703"/>
      <use xlink:href="#ArialMT-6e" x="422.460938"/>
      <use xlink:href="#ArialMT-20" x="478.076172"/>
      <use xlink:href="#ArialMT-28" x="505.859375"/>
      <use xlink:href="#ArialMT-31" x="539.160156"/>
      <use xlink:href="#ArialMT-30" x="594.775391"/>
      <use xlink:href="#ArialMT-30" x="650.390625"/>
      <use xlink:href="#ArialMT-30" x="706.005859"/>
      <use xlink:href="#ArialMT-20" x="761.621094"/>
      <use xlink:href="#ArialMT-74" x="789.404297"/>
      <use xlink:href="#ArialMT-6f" x="817.1875"/>
      <use xlink:href="#ArialMT-6e" x="872.802734"/>
      <use xlink:href="#ArialMT-73" x="928.417969"/>
      <use xlink:href="#ArialMT-29" x="978.417969"/>
     </g>
    </g>
   </g>
   <g id="line2d_15">
    <path d="M 80.264489 276.287233 
L 92.200318 284.576888 
L 104.136146 265.101563 
L 116.071975 257.857692 
L 128.007804 263.243669 
L 139.943633 257.78874 
L 151.879462 263.350929 
L 163.815291 256.758279 
L 175.75112 267.779229 
L 187.686949 257.114535 
L 199.622777 279.589305 
L 211.558606 250.303534 
L 223.494435 260.443421 
L 235.430264 253.988676 
L 247.366093 210.402869 
L 259.301922 215.869291 
L 271.237751 252.950554 
L 283.17358 255.329424 
L 295.109408 248.560562 
L 307.045237 267.748583 
L 318.981066 256.252625 
L 330.916895 266.354205 
L 342.852724 247.108723 
L 354.788553 248.384349 
L 366.724382 246.453289 
L 378.660211 231.428099 
L 390.596039 221.901508 
L 402.531868 217.527988 
L 414.467697 218.117534 
L 426.403526 223.618049 
L 438.339355 216.432022 
L 450.275184 216.389884 
L 462.211013 199.373109 
L 474.146842 197.078897 
L 486.08267 192.126556 
L 498.018499 215.568197 
L 509.954328 247.898998 
L 521.890157 241.756839 
L 533.825986 197.481122 
L 545.761815 186.255229 
L 557.697644 199.806745 
L 569.633473 191.262732 
L 581.569301 185.025571 
L 593.50513 190.985005 
L 605.440959 174.874192 
L 617.376788 187.92197 
L 629.312617 210.575251 
L 641.248446 184.213461 
L 653.184275 185.16386 
L 665.120104 223.744079 
L 677.055932 229.35262 
L 688.991761 228.077377 
" clip-path="url(#p733589072a)" style="fill: none; stroke: #1f77b4; stroke-width: 1.5; stroke-linecap: round"/>
   </g>
   <g id="line2d_16">
    <path d="M 80.264489 314.805013 
L 92.200318 308.41539 
L 104.136146 305.967567 
L 116.071975 307.377268 
L 128.007804 296.375471 
L 139.943633 294.548223 
L 151.879462 307.591787 
L 163.815291 296.547853 
L 175.75112 291.851404 
L 187.686949 289.924557 
L 199.622777 313.628985 
L 211.558606 294.176644 
L 223.494435 288.721715 
L 235.430264 299.367255 
L 247.366093 303.994752 
L 259.301922 306.388945 
L 271.237751 304.68811 
L 283.17358 300.370901 
L 295.109408 304.672787 
L 307.045237 310.602725 
L 318.981066 301.55459 
L 330.916895 310.464819 
L 342.852724 310.656355 
L 354.788553 310.192839 
L 366.724382 313.923949 
L 378.660211 304.944384 
L 390.596039 307.313678 
L 402.531868 310.675508 
L 414.467697 314.797734 
L 426.403526 315.235201 
L 438.339355 311.085777 
L 450.275184 319.685719 
L 462.211013 315.832792 
L 474.146842 318.139262 
L 486.08267 316.862486 
L 498.018499 324.925746 
L 509.954328 325.543639 
L 521.890157 330.256177 
L 533.825986 319.119923 
L 545.761815 320.984329 
L 557.697644 326.62275 
L 569.633473 320.595512 
L 581.569301 327.295422 
L 593.50513 330.224765 
L 605.440959 326.249256 
L 617.376788 328.350783 
L 629.312617 332.040522 
L 641.248446 330.30636 
L 653.184275 333.333003 
L 665.120104 334.881758 
L 677.055932 334.521672 
L 688.991761 333.593491 
" clip-path="url(#p733589072a)" style="fill: none; stroke: #ff7f0e; stroke-width: 1.5; stroke-linecap: round"/>
   </g>
   <g id="line2d_17">
    <path d="M 80.264489 310.801922 
L 92.200318 315.337481 
L 104.136146 310.028118 
L 116.071975 314.429603 
L 128.007804 305.040535 
L 139.943633 310.625709 
L 151.879462 329.882683 
L 163.815291 317.360095 
L 175.75112 317.540139 
L 187.686949 320.436155 
L 199.622777 320.053084 
L 211.558606 318.444186 
L 223.494435 316.168745 
L 235.430264 315.628615 
L 247.366093 321.401493 
L 259.301922 316.283666 
L 271.237751 313.410634 
L 283.17358 305.791354 
L 295.109408 311.456973 
L 307.045237 317.279651 
L 318.981066 306.699232 
L 330.916895 311.82089 
L 342.852724 310.342237 
L 354.788553 306.488543 
L 366.724382 315.871099 
L 378.660211 311.556188 
L 390.596039 297.822713 
L 402.531868 295.636911 
L 414.467697 301.383357 
L 426.403526 297.883239 
L 438.339355 295.128193 
L 450.275184 311.188057 
L 462.211013 301.015992 
L 474.146842 292.173567 
L 486.08267 302.791143 
L 498.018499 301.425495 
L 509.954328 306.444873 
L 521.890157 314.906143 
L 533.825986 307.430898 
L 545.761815 301.279162 
L 557.697644 309.019493 
L 569.633473 294.341365 
L 581.569301 294.780364 
L 593.50513 299.032451 
L 605.440959 296.466642 
L 617.376788 305.91432 
L 629.312617 296.508014 
L 641.248446 298.161348 
L 653.184275 300.631772 
L 665.120104 313.497208 
L 677.055932 311.979098 
L 688.991761 296.896831 
" clip-path="url(#p733589072a)" style="fill: none; stroke: #2ca02c; stroke-width: 1.5; stroke-linecap: round"/>
   </g>
   <g id="line2d_18">
    <path d="M 80.264489 286.151309 
L 92.200318 284.297246 
L 104.136146 276.54006 
L 116.071975 282.351246 
L 128.007804 261.960382 
L 139.943633 265.718307 
L 151.879462 298.018846 
L 163.815291 274.452324 
L 175.75112 269.935918 
L 187.686949 270.905087 
L 199.622777 294.226444 
L 211.558606 273.165206 
L 223.494435 265.434835 
L 235.430264 275.540245 
L 247.366093 285.94062 
L 259.301922 283.216986 
L 271.237751 278.643119 
L 283.17358 266.70663 
L 295.109408 276.674135 
L 307.045237 288.42675 
L 318.981066 268.798197 
L 330.916895 282.830084 
L 342.852724 281.542966 
L 354.788553 277.225757 
L 366.724382 290.340956 
L 378.660211 277.048012 
L 390.596039 265.680383 
L 402.531868 266.85756 
L 414.467697 276.712442 
L 426.403526 273.662815 
L 438.339355 266.759111 
L 450.275184 291.417768 
L 462.211013 276.507116 
L 474.146842 270.85797 
L 486.08267 280.196855 
L 498.018499 286.89485 
L 509.954328 292.533653 
L 521.890157 309.537405 
L 533.825986 287.411612 
L 545.761815 282.809016 
L 557.697644 296.185468 
L 569.633473 275.482401 
L 581.569301 282.621694 
L 593.50513 289.802741 
L 605.440959 283.260656 
L 617.376788 294.808711 
L 629.312617 289.092527 
L 641.248446 289.010167 
L 653.184275 294.50915 
L 665.120104 308.924108 
L 677.055932 307.045145 
L 688.991761 291.034697 
" clip-path="url(#p733589072a)" style="fill: none; stroke: #d62728; stroke-width: 1.5; stroke-linecap: round"/>
   </g>
   <g id="line2d_19">
    <path d="M 80.264489 338.869527 
L 92.200318 337.524948 
L 104.136146 335.32229 
L 116.071975 332.985557 
L 128.007804 331.139156 
L 139.943633 330.154664 
L 151.879462 331.039557 
L 163.815291 330.208293 
L 175.75112 329.852038 
L 187.686949 324.975545 
L 199.622777 326.699364 
L 211.558606 323.630966 
L 223.494435 323.021883 
L 235.430264 322.294049 
L 247.366093 324.829978 
L 259.301922 323.343663 
L 271.237751 323.033375 
L 283.17358 321.386171 
L 295.109408 323.623305 
L 307.045237 323.879962 
L 318.981066 323.228742 
L 330.916895 319.700659 
L 342.852724 313.491079 
L 354.788553 312.613847 
L 366.724382 315.303771 
L 378.660211 307.100307 
L 390.596039 302.024235 
L 402.531868 303.162722 
L 414.467697 301.627757 
L 426.403526 295.693222 
L 438.339355 286.392644 
L 450.275184 281.574378 
L 462.211013 275.433368 
L 474.146842 288.358564 
L 486.08267 257.669988 
L 498.018499 294.037207 
L 509.954328 288.010735 
L 521.890157 293.106344 
L 533.825986 243.329345 
L 545.761815 231.945244 
L 557.697644 238.265914 
L 569.633473 213.960066 
L 581.569301 226.208375 
L 593.50513 227.407386 
L 605.440959 169.204743 
L 617.376788 182.939367 
L 629.312617 206.300563 
L 641.248446 172.575001 
L 653.184275 178.044487 
L 665.120104 212.640003 
L 677.055932 212.494819 
L 688.991761 124.527184 
" clip-path="url(#p733589072a)" style="fill: none; stroke: #9467bd; stroke-width: 1.5; stroke-linecap: round"/>
   </g>
   <g id="line2d_20">
    <path d="M 80.264489 312.678969 
L 92.200318 316.35645 
L 104.136146 319.38654 
L 116.071975 311.993272 
L 128.007804 305.266547 
L 139.943633 300.573929 
L 151.879462 307.98252 
L 163.815291 309.491819 
L 175.75112 303.542728 
L 187.686949 289.870928 
L 199.622777 306.971213 
L 211.558606 282.784116 
L 223.494435 278.225572 
L 235.430264 284.235955 
L 247.366093 298.704543 
L 259.301922 284.289585 
L 271.237751 288.851959 
L 283.17358 279.282848 
L 295.109408 296.827495 
L 307.045237 296.360149 
L 318.981066 283.18251 
L 330.916895 292.299597 
L 342.852724 295.670621 
L 354.788553 285.83336 
L 366.724382 302.06484 
L 378.660211 285.688176 
L 390.596039 280.610189 
L 402.531868 279.44527 
L 414.467697 287.639156 
L 426.403526 277.468241 
L 438.339355 282.180396 
L 450.275184 290.68955 
L 462.211013 273.0273 
L 474.146842 285.741806 
L 486.08267 269.162115 
L 498.018499 280.488372 
L 509.954328 312.085592 
L 521.890157 296.357084 
L 533.825986 277.632195 
L 545.761815 276.006826 
L 557.697644 313.981793 
L 569.633473 287.048844 
L 581.569301 292.223366 
L 593.50513 293.625405 
L 605.440959 278.614772 
L 617.376788 290.734369 
L 629.312617 302.125366 
L 641.248446 291.260709 
L 653.184275 289.688586 
L 665.120104 293.924584 
L 677.055932 320.633819 
L 688.991761 279.379382 
" clip-path="url(#p733589072a)" style="fill: none; stroke: #8c564b; stroke-width: 1.5; stroke-linecap: round"/>
   </g>
   <g id="line2d_21">
    <path d="M 80.264489 330.394466 
L 92.200318 330.99627 
L 104.136146 330.752637 
L 116.071975 326.735373 
L 128.007804 328.625061 
L 139.943633 326.973643 
L 151.879462 328.882485 
L 163.815291 324.750682 
L 175.75112 324.746852 
L 187.686949 323.2161 
L 199.622777 329.904518 
L 211.558606 325.7957 
L 223.494435 323.998331 
L 235.430264 326.77751 
L 247.366093 326.918864 
L 259.301922 326.718901 
L 271.237751 327.059451 
L 283.17358 324.220895 
L 295.109408 326.51051 
L 307.045237 329.070573 
L 318.981066 327.662021 
L 330.916895 325.890318 
L 342.852724 329.488503 
L 354.788553 328.520483 
L 366.724382 328.134731 
L 378.660211 323.791473 
L 390.596039 324.054259 
L 402.531868 326.289095 
L 414.467697 328.743813 
L 426.403526 326.258066 
L 438.339355 327.980736 
L 450.275184 328.613952 
L 462.211013 327.084733 
L 474.146842 325.144862 
L 486.08267 322.14082 
L 498.018499 327.393872 
L 509.954328 331.753985 
L 521.890157 331.849369 
L 533.825986 328.814682 
L 545.761815 327.780007 
L 557.697644 328.816597 
L 569.633473 323.444027 
L 581.569301 329.312291 
L 593.50513 329.276665 
L 605.440959 324.172245 
L 617.376788 327.973841 
L 629.312617 329.483906 
L 641.248446 327.405364 
L 653.184275 329.387756 
L 665.120104 328.973656 
L 677.055932 328.361892 
L 688.991761 324.263033 
" clip-path="url(#p733589072a)" style="fill: none; stroke: #e377c2; stroke-width: 1.5; stroke-linecap: round"/>
   </g>
   <g id="line2d_22">
    <path d="M 80.264489 317.769981 
L 92.200318 318.440355 
L 104.136146 318.045792 
L 116.071975 313.843505 
L 128.007804 313.345512 
L 139.943633 314.318512 
L 151.879462 322.57369 
L 163.815291 312.805382 
L 175.75112 311.299914 
L 187.686949 314.061855 
L 199.622777 326.048143 
L 211.558606 318.382895 
L 223.494435 316.406249 
L 235.430264 314.092501 
L 247.366093 323.251726 
L 259.301922 327.335262 
L 271.237751 318.712336 
L 283.17358 310.855552 
L 295.109408 310.924504 
L 307.045237 299.620082 
L 318.981066 304.347177 
L 330.916895 304.044551 
L 342.852724 300.780787 
L 354.788553 303.129011 
L 366.724382 308.191676 
L 378.660211 298.179352 
L 390.596039 295.942218 
L 402.531868 293.526573 
L 414.467697 303.235888 
L 426.403526 295.833426 
L 438.339355 295.497856 
L 450.275184 312.38592 
L 462.211013 293.788211 
L 474.146842 310.029268 
L 486.08267 298.045661 
L 498.018499 317.032187 
L 509.954328 318.80772 
L 521.890157 322.839159 
L 533.825986 313.248979 
L 545.761815 316.628813 
L 557.697644 326.922311 
L 569.633473 312.958228 
L 581.569301 324.206722 
L 593.50513 321.935494 
L 605.440959 311.046704 
L 617.376788 321.476958 
L 629.312617 324.316663 
L 641.248446 317.797562 
L 653.184275 320.234659 
L 665.120104 324.332369 
L 677.055932 323.41568 
L 688.991761 315.079674 
" clip-path="url(#p733589072a)" style="fill: none; stroke: #7f7f7f; stroke-width: 1.5; stroke-linecap: round"/>
   </g>
   <g id="line2d_23">
    <path d="M 80.264489 315.471173 
L 92.200318 314.113953 
L 104.136146 312.264103 
L 116.071975 311.285357 
L 128.007804 305.914703 
L 139.943633 305.889803 
L 151.879462 320.282543 
L 163.815291 309.303348 
L 175.75112 307.512492 
L 187.686949 309.42708 
L 199.622777 322.387901 
L 211.558606 312.249163 
L 223.494435 309.353914 
L 235.430264 309.712085 
L 247.366093 314.138086 
L 259.301922 307.458479 
L 271.237751 309.508291 
L 283.17358 297.07879 
L 295.109408 287.004408 
L 307.045237 301.882499 
L 318.981066 291.292504 
L 330.916895 282.212957 
L 342.852724 286.96227 
L 354.788553 286.366595 
L 366.724382 288.158218 
L 378.660211 271.273985 
L 390.596039 272.232428 
L 402.531868 267.098895 
L 414.467697 280.375749 
L 426.403526 272.667596 
L 438.339355 272.207528 
L 450.275184 295.818869 
L 462.211013 275.427622 
L 474.146842 339.455625 
L 486.08267 280.347785 
L 498.018499 300.38699 
L 509.954328 298.323004 
L 521.890157 303.684847 
L 533.825986 284.051314 
L 545.761815 280.947674 
L 557.697644 303.270748 
L 569.633473 285.095949 
L 581.569301 300.093941 
L 593.50513 304.979244 
L 605.440959 297.580996 
L 617.376788 305.596754 
L 629.312617 308.764751 
L 641.248446 296.494607 
L 653.184275 305.001845 
L 665.120104 339.455625 
L 677.055932 339.455625 
L 688.991761 339.455625 
" clip-path="url(#p733589072a)" style="fill: none; stroke: #bcbd22; stroke-width: 1.5; stroke-linecap: round"/>
   </g>
   <g id="line2d_24">
    <path d="M 80.264489 309.104918 
L 92.200318 306.297008 
L 104.136146 303.22861 
L 116.071975 305.833492 
L 128.007804 308.403898 
L 139.943633 304.282055 
L 151.879462 304.875815 
L 163.815291 303.489098 
L 175.75112 302.979614 
L 187.686949 300.006984 
L 199.622777 301.891692 
L 211.558606 293.923818 
L 223.494435 296.570838 
L 235.430264 302.431822 
L 247.366093 291.885881 
L 259.301922 291.445349 
L 271.237751 285.251093 
L 283.17358 288.078156 
L 295.109408 284.331722 
L 307.045237 291.28829 
L 318.981066 285.768238 
L 330.916895 284.04825 
L 342.852724 268.798197 
L 354.788553 271.855103 
L 366.724382 259.968413 
L 378.660211 247.279573 
L 390.596039 253.342436 
L 402.531868 237.548039 
L 414.467697 212.687121 
L 426.403526 233.887414 
L 438.339355 249.914717 
L 450.275184 228.368128 
L 462.211013 206.258425 
L 474.146842 196.195536 
L 486.08267 175.030102 
L 498.018499 212.978255 
L 509.954328 215.013511 
L 521.890157 278.104522 
L 533.825986 285.851748 
L 545.761815 264.190621 
L 557.697644 248.890769 
L 569.633473 239.748782 
L 581.569301 246.499257 
L 593.50513 215.780802 
L 605.440959 187.53775 
L 617.376788 37.055625 
L 629.312617 203.4237 
L 641.248446 193.726261 
L 653.184275 171.525003 
L 665.120104 200.346492 
L 677.055932 234.577708 
L 688.991761 195.953818 
" clip-path="url(#p733589072a)" style="fill: none; stroke: #17becf; stroke-width: 1.5; stroke-linecap: round"/>
   </g>
   <g id="line2d_25"/>
   <g id="line2d_26"/>
   <g id="line2d_27"/>
   <g id="line2d_28"/>
   <g id="line2d_29"/>
   <g id="line2d_30"/>
   <g id="line2d_31"/>
   <g id="line2d_32"/>
   <g id="line2d_33"/>
   <g id="line2d_34"/>
   <g id="patch_3">
    <path d="M 49.828125 354.575625 
L 49.828125 21.935625 
" style="fill: none; stroke: #ffffff; stroke-width: 0.8; stroke-linejoin: miter; stroke-linecap: square"/>
   </g>
   <g id="patch_4">
    <path d="M 719.428125 354.575625 
L 719.428125 21.935625 
" style="fill: none; stroke: #ffffff; stroke-width: 0.8; stroke-linejoin: miter; stroke-linecap: square"/>
   </g>
   <g id="patch_5">
    <path d="M 49.828125 354.575625 
L 719.428125 354.575625 
" style="fill: none; stroke: #ffffff; stroke-width: 0.8; stroke-linejoin: miter; stroke-linecap: square"/>
   </g>
   <g id="patch_6">
    <path d="M 49.828125 21.935625 
L 719.428125 21.935625 
" style="fill: none; stroke: #ffffff; stroke-width: 0.8; stroke-linejoin: miter; stroke-linecap: square"/>
   </g>
   <g id="text_17">
    <!-- Production of crops in Karnataka from 1966 to 2017 -->
    <g style="fill: #262626" transform="translate(247.221563 15.935625) scale(0.12 -0.12)">
     <defs>
      <path id="ArialMT-66" d="M 556 0 
L 556 2881 
L 59 2881 
L 59 3319 
L 556 3319 
L 556 3672 
Q 556 4006 616 4169 
Q 697 4388 901 4523 
Q 1106 4659 1475 4659 
Q 1713 4659 2000 4603 
L 1916 4113 
Q 1741 4144 1584 4144 
Q 1328 4144 1222 4034 
Q 1116 3925 1116 3625 
L 1116 3319 
L 1763 3319 
L 1763 2881 
L 1116 2881 
L 1116 0 
L 556 0 
z
" transform="scale(0.015625)"/>
      <path id="ArialMT-70" d="M 422 -1272 
L 422 3319 
L 934 3319 
L 934 2888 
Q 1116 3141 1344 3267 
Q 1572 3394 1897 3394 
Q 2322 3394 2647 3175 
Q 2972 2956 3137 2557 
Q 3303 2159 3303 1684 
Q 3303 1175 3120 767 
Q 2938 359 2589 142 
Q 2241 -75 1856 -75 
Q 1575 -75 1351 44 
Q 1128 163 984 344 
L 984 -1272 
L 422 -1272 
z
M 931 1641 
Q 931 1000 1190 694 
Q 1450 388 1819 388 
Q 2194 388 2461 705 
Q 2728 1022 2728 1688 
Q 2728 2322 2467 2637 
Q 2206 2953 1844 2953 
Q 1484 2953 1207 2617 
Q 931 2281 931 1641 
z
" transform="scale(0.015625)"/>
      <path id="ArialMT-4b" d="M 469 0 
L 469 4581 
L 1075 4581 
L 1075 2309 
L 3350 4581 
L 4172 4581 
L 2250 2725 
L 4256 0 
L 3456 0 
L 1825 2319 
L 1075 1588 
L 1075 0 
L 469 0 
z
" transform="scale(0.015625)"/>
      <path id="ArialMT-6b" d="M 425 0 
L 425 4581 
L 988 4581 
L 988 1969 
L 2319 3319 
L 3047 3319 
L 1778 2088 
L 3175 0 
L 2481 0 
L 1384 1697 
L 988 1316 
L 988 0 
L 425 0 
z
" transform="scale(0.015625)"/>
      <path id="ArialMT-6d" d="M 422 0 
L 422 3319 
L 925 3319 
L 925 2853 
Q 1081 3097 1340 3245 
Q 1600 3394 1931 3394 
Q 2300 3394 2536 3241 
Q 2772 3088 2869 2813 
Q 3263 3394 3894 3394 
Q 4388 3394 4653 3120 
Q 4919 2847 4919 2278 
L 4919 0 
L 4359 0 
L 4359 2091 
Q 4359 2428 4304 2576 
Q 4250 2725 4106 2815 
Q 3963 2906 3769 2906 
Q 3419 2906 3187 2673 
Q 2956 2441 2956 1928 
L 2956 0 
L 2394 0 
L 2394 2156 
Q 2394 2531 2256 2718 
Q 2119 2906 1806 2906 
Q 1569 2906 1367 2781 
Q 1166 2656 1075 2415 
Q 984 2175 984 1722 
L 984 0 
L 422 0 
z
" transform="scale(0.015625)"/>
     </defs>
     <use xlink:href="#ArialMT-50"/>
     <use xlink:href="#ArialMT-72" x="66.699219"/>
     <use xlink:href="#ArialMT-6f" x="100"/>
     <use xlink:href="#ArialMT-64" x="155.615234"/>
     <use xlink:href="#ArialMT-75" x="211.230469"/>
     <use xlink:href="#ArialMT-63" x="266.845703"/>
     <use xlink:href="#ArialMT-74" x="316.845703"/>
     <use xlink:href="#ArialMT-69" x="344.628906"/>
     <use xlink:href="#ArialMT-6f" x="366.845703"/>
     <use xlink:href="#ArialMT-6e" x="422.460938"/>
     <use xlink:href="#ArialMT-20" x="478.076172"/>
     <use xlink:href="#ArialMT-6f" x="505.859375"/>
     <use xlink:href="#ArialMT-66" x="561.474609"/>
     <use xlink:href="#ArialMT-20" x="589.257812"/>
     <use xlink:href="#ArialMT-63" x="617.041016"/>
     <use xlink:href="#ArialMT-72" x="667.041016"/>
     <use xlink:href="#ArialMT-6f" x="700.341797"/>
     <use xlink:href="#ArialMT-70" x="755.957031"/>
     <use xlink:href="#ArialMT-73" x="811.572266"/>
     <use xlink:href="#ArialMT-20" x="861.572266"/>
     <use xlink:href="#ArialMT-69" x="889.355469"/>
     <use xlink:href="#ArialMT-6e" x="911.572266"/>
     <use xlink:href="#ArialMT-20" x="967.1875"/>
     <use xlink:href="#ArialMT-4b" x="994.970703"/>
     <use xlink:href="#ArialMT-61" x="1061.669922"/>
     <use xlink:href="#ArialMT-72" x="1117.285156"/>
     <use xlink:href="#ArialMT-6e" x="1150.585938"/>
     <use xlink:href="#ArialMT-61" x="1206.201172"/>
     <use xlink:href="#ArialMT-74" x="1261.816406"/>
     <use xlink:href="#ArialMT-61" x="1289.599609"/>
     <use xlink:href="#ArialMT-6b" x="1345.214844"/>
     <use xlink:href="#ArialMT-61" x="1395.214844"/>
     <use xlink:href="#ArialMT-20" x="1450.830078"/>
     <use xlink:href="#ArialMT-66" x="1478.613281"/>
     <use xlink:href="#ArialMT-72" x="1506.396484"/>
     <use xlink:href="#ArialMT-6f" x="1539.697266"/>
     <use xlink:href="#ArialMT-6d" x="1595.3125"/>
     <use xlink:href="#ArialMT-20" x="1678.613281"/>
     <use xlink:href="#ArialMT-31" x="1706.396484"/>
     <use xlink:href="#ArialMT-39" x="1762.011719"/>
     <use xlink:href="#ArialMT-36" x="1817.626953"/>
     <use xlink:href="#ArialMT-36" x="1873.242188"/>
     <use xlink:href="#ArialMT-20" x="1928.857422"/>
     <use xlink:href="#ArialMT-74" x="1956.640625"/>
     <use xlink:href="#ArialMT-6f" x="1984.423828"/>
     <use xlink:href="#ArialMT-20" x="2040.039062"/>
     <use xlink:href="#ArialMT-32" x="2067.822266"/>
     <use xlink:href="#ArialMT-30" x="2123.4375"/>
     <use xlink:href="#ArialMT-31" x="2179.052734"/>
     <use xlink:href="#ArialMT-37" x="2234.667969"/>
    </g>
   </g>
   <g id="legend_1">
    <g id="patch_7">
     <path d="M 721.428125 260.957969 
L 821.23125 260.957969 
Q 823.23125 260.957969 823.23125 258.957969 
L 823.23125 117.553281 
Q 823.23125 115.553281 821.23125 115.553281 
L 721.428125 115.553281 
Q 719.428125 115.553281 719.428125 117.553281 
L 719.428125 258.957969 
Q 719.428125 260.957969 721.428125 260.957969 
z
" style="fill: #eaeaf2; opacity: 0.8; stroke: #cccccc; stroke-linejoin: miter"/>
    </g>
    <g id="line2d_35">
     <path d="M 723.428125 123.211094 
L 733.428125 123.211094 
L 743.428125 123.211094 
" style="fill: none; stroke: #1f77b4; stroke-width: 1.5; stroke-linecap: round"/>
    </g>
    <g id="text_18">
     <!-- Rice -->
     <g style="fill: #262626" transform="translate(751.428125 126.711094) scale(0.1 -0.1)">
      <defs>
       <path id="ArialMT-52" d="M 503 0 
L 503 4581 
L 2534 4581 
Q 3147 4581 3465 4457 
Q 3784 4334 3975 4021 
Q 4166 3709 4166 3331 
Q 4166 2844 3850 2509 
Q 3534 2175 2875 2084 
Q 3116 1969 3241 1856 
Q 3506 1613 3744 1247 
L 4541 0 
L 3778 0 
L 3172 953 
Q 2906 1366 2734 1584 
Q 2563 1803 2427 1890 
Q 2291 1978 2150 2013 
Q 2047 2034 1813 2034 
L 1109 2034 
L 1109 0 
L 503 0 
z
M 1109 2559 
L 2413 2559 
Q 2828 2559 3062 2645 
Q 3297 2731 3419 2920 
Q 3541 3109 3541 3331 
Q 3541 3656 3305 3865 
Q 3069 4075 2559 4075 
L 1109 4075 
L 1109 2559 
z
" transform="scale(0.015625)"/>
      </defs>
      <use xlink:href="#ArialMT-52"/>
      <use xlink:href="#ArialMT-69" x="72.216797"/>
      <use xlink:href="#ArialMT-63" x="94.433594"/>
      <use xlink:href="#ArialMT-65" x="144.433594"/>
     </g>
    </g>
    <g id="line2d_36">
     <path d="M 723.428125 137.478281 
L 733.428125 137.478281 
L 743.428125 137.478281 
" style="fill: none; stroke: #ff7f0e; stroke-width: 1.5; stroke-linecap: round"/>
    </g>
    <g id="text_19">
     <!-- Kharif sorghum -->
     <g style="fill: #262626" transform="translate(751.428125 140.978281) scale(0.1 -0.1)">
      <defs>
       <path id="ArialMT-68" d="M 422 0 
L 422 4581 
L 984 4581 
L 984 2938 
Q 1378 3394 1978 3394 
Q 2347 3394 2619 3248 
Q 2891 3103 3008 2847 
Q 3125 2591 3125 2103 
L 3125 0 
L 2563 0 
L 2563 2103 
Q 2563 2525 2380 2717 
Q 2197 2909 1863 2909 
Q 1613 2909 1392 2779 
Q 1172 2650 1078 2428 
Q 984 2206 984 1816 
L 984 0 
L 422 0 
z
" transform="scale(0.015625)"/>
       <path id="ArialMT-67" d="M 319 -275 
L 866 -356 
Q 900 -609 1056 -725 
Q 1266 -881 1628 -881 
Q 2019 -881 2231 -725 
Q 2444 -569 2519 -288 
Q 2563 -116 2559 434 
Q 2191 0 1641 0 
Q 956 0 581 494 
Q 206 988 206 1678 
Q 206 2153 378 2554 
Q 550 2956 876 3175 
Q 1203 3394 1644 3394 
Q 2231 3394 2613 2919 
L 2613 3319 
L 3131 3319 
L 3131 450 
Q 3131 -325 2973 -648 
Q 2816 -972 2473 -1159 
Q 2131 -1347 1631 -1347 
Q 1038 -1347 672 -1080 
Q 306 -813 319 -275 
z
M 784 1719 
Q 784 1066 1043 766 
Q 1303 466 1694 466 
Q 2081 466 2343 764 
Q 2606 1063 2606 1700 
Q 2606 2309 2336 2618 
Q 2066 2928 1684 2928 
Q 1309 2928 1046 2623 
Q 784 2319 784 1719 
z
" transform="scale(0.015625)"/>
      </defs>
      <use xlink:href="#ArialMT-4b"/>
      <use xlink:href="#ArialMT-68" x="66.699219"/>
      <use xlink:href="#ArialMT-61" x="122.314453"/>
      <use xlink:href="#ArialMT-72" x="177.929688"/>
      <use xlink:href="#ArialMT-69" x="211.230469"/>
      <use xlink:href="#ArialMT-66" x="233.447266"/>
      <use xlink:href="#ArialMT-20" x="261.230469"/>
      <use xlink:href="#ArialMT-73" x="289.013672"/>
      <use xlink:href="#ArialMT-6f" x="339.013672"/>
      <use xlink:href="#ArialMT-72" x="394.628906"/>
      <use xlink:href="#ArialMT-67" x="427.929688"/>
      <use xlink:href="#ArialMT-68" x="483.544922"/>
      <use xlink:href="#ArialMT-75" x="539.160156"/>
      <use xlink:href="#ArialMT-6d" x="594.775391"/>
     </g>
    </g>
    <g id="line2d_37">
     <path d="M 723.428125 151.740781 
L 733.428125 151.740781 
L 743.428125 151.740781 
" style="fill: none; stroke: #2ca02c; stroke-width: 1.5; stroke-linecap: round"/>
    </g>
    <g id="text_20">
     <!-- Rabi sorghum -->
     <g style="fill: #262626" transform="translate(751.428125 155.240781) scale(0.1 -0.1)">
      <defs>
       <path id="ArialMT-62" d="M 941 0 
L 419 0 
L 419 4581 
L 981 4581 
L 981 2947 
Q 1338 3394 1891 3394 
Q 2197 3394 2470 3270 
Q 2744 3147 2920 2923 
Q 3097 2700 3197 2384 
Q 3297 2069 3297 1709 
Q 3297 856 2875 390 
Q 2453 -75 1863 -75 
Q 1275 -75 941 416 
L 941 0 
z
M 934 1684 
Q 934 1088 1097 822 
Q 1363 388 1816 388 
Q 2184 388 2453 708 
Q 2722 1028 2722 1663 
Q 2722 2313 2464 2622 
Q 2206 2931 1841 2931 
Q 1472 2931 1203 2611 
Q 934 2291 934 1684 
z
" transform="scale(0.015625)"/>
      </defs>
      <use xlink:href="#ArialMT-52"/>
      <use xlink:href="#ArialMT-61" x="72.216797"/>
      <use xlink:href="#ArialMT-62" x="127.832031"/>
      <use xlink:href="#ArialMT-69" x="183.447266"/>
      <use xlink:href="#ArialMT-20" x="205.664062"/>
      <use xlink:href="#ArialMT-73" x="233.447266"/>
      <use xlink:href="#ArialMT-6f" x="283.447266"/>
      <use xlink:href="#ArialMT-72" x="339.0625"/>
      <use xlink:href="#ArialMT-67" x="372.363281"/>
      <use xlink:href="#ArialMT-68" x="427.978516"/>
      <use xlink:href="#ArialMT-75" x="483.59375"/>
      <use xlink:href="#ArialMT-6d" x="539.208984"/>
     </g>
    </g>
    <g id="line2d_38">
     <path d="M 723.428125 166.125156 
L 733.428125 166.125156 
L 743.428125 166.125156 
" style="fill: none; stroke: #d62728; stroke-width: 1.5; stroke-linecap: round"/>
    </g>
    <g id="text_21">
     <!-- Sorghum -->
     <g style="fill: #262626" transform="translate(751.428125 169.625156) scale(0.1 -0.1)">
      <defs>
       <path id="ArialMT-53" d="M 288 1472 
L 859 1522 
Q 900 1178 1048 958 
Q 1197 738 1509 602 
Q 1822 466 2213 466 
Q 2559 466 2825 569 
Q 3091 672 3220 851 
Q 3350 1031 3350 1244 
Q 3350 1459 3225 1620 
Q 3100 1781 2813 1891 
Q 2628 1963 1997 2114 
Q 1366 2266 1113 2400 
Q 784 2572 623 2826 
Q 463 3081 463 3397 
Q 463 3744 659 4045 
Q 856 4347 1234 4503 
Q 1613 4659 2075 4659 
Q 2584 4659 2973 4495 
Q 3363 4331 3572 4012 
Q 3781 3694 3797 3291 
L 3216 3247 
Q 3169 3681 2898 3903 
Q 2628 4125 2100 4125 
Q 1550 4125 1298 3923 
Q 1047 3722 1047 3438 
Q 1047 3191 1225 3031 
Q 1400 2872 2139 2705 
Q 2878 2538 3153 2413 
Q 3553 2228 3743 1945 
Q 3934 1663 3934 1294 
Q 3934 928 3725 604 
Q 3516 281 3123 101 
Q 2731 -78 2241 -78 
Q 1619 -78 1198 103 
Q 778 284 539 648 
Q 300 1013 288 1472 
z
" transform="scale(0.015625)"/>
      </defs>
      <use xlink:href="#ArialMT-53"/>
      <use xlink:href="#ArialMT-6f" x="66.699219"/>
      <use xlink:href="#ArialMT-72" x="122.314453"/>
      <use xlink:href="#ArialMT-67" x="155.615234"/>
      <use xlink:href="#ArialMT-68" x="211.230469"/>
      <use xlink:href="#ArialMT-75" x="266.845703"/>
      <use xlink:href="#ArialMT-6d" x="322.460938"/>
     </g>
    </g>
    <g id="line2d_39">
     <path d="M 723.428125 180.387656 
L 733.428125 180.387656 
L 743.428125 180.387656 
" style="fill: none; stroke: #9467bd; stroke-width: 1.5; stroke-linecap: round"/>
    </g>
    <g id="text_22">
     <!-- Maize -->
     <g style="fill: #262626" transform="translate(751.428125 183.887656) scale(0.1 -0.1)">
      <defs>
       <path id="ArialMT-4d" d="M 475 0 
L 475 4581 
L 1388 4581 
L 2472 1338 
Q 2622 884 2691 659 
Q 2769 909 2934 1394 
L 4031 4581 
L 4847 4581 
L 4847 0 
L 4263 0 
L 4263 3834 
L 2931 0 
L 2384 0 
L 1059 3900 
L 1059 0 
L 475 0 
z
" transform="scale(0.015625)"/>
       <path id="ArialMT-7a" d="M 125 0 
L 125 456 
L 2238 2881 
Q 1878 2863 1603 2863 
L 250 2863 
L 250 3319 
L 2963 3319 
L 2963 2947 
L 1166 841 
L 819 456 
Q 1197 484 1528 484 
L 3063 484 
L 3063 0 
L 125 0 
z
" transform="scale(0.015625)"/>
      </defs>
      <use xlink:href="#ArialMT-4d"/>
      <use xlink:href="#ArialMT-61" x="83.300781"/>
      <use xlink:href="#ArialMT-69" x="138.916016"/>
      <use xlink:href="#ArialMT-7a" x="161.132812"/>
      <use xlink:href="#ArialMT-65" x="211.132812"/>
     </g>
    </g>
    <g id="line2d_40">
     <path d="M 723.428125 194.532969 
L 733.428125 194.532969 
L 743.428125 194.532969 
" style="fill: none; stroke: #8c564b; stroke-width: 1.5; stroke-linecap: round"/>
    </g>
    <g id="text_23">
     <!-- Finger millet -->
     <g style="fill: #262626" transform="translate(751.428125 198.032969) scale(0.1 -0.1)">
      <defs>
       <path id="ArialMT-46" d="M 525 0 
L 525 4581 
L 3616 4581 
L 3616 4041 
L 1131 4041 
L 1131 2622 
L 3281 2622 
L 3281 2081 
L 1131 2081 
L 1131 0 
L 525 0 
z
" transform="scale(0.015625)"/>
       <path id="ArialMT-6c" d="M 409 0 
L 409 4581 
L 972 4581 
L 972 0 
L 409 0 
z
" transform="scale(0.015625)"/>
      </defs>
      <use xlink:href="#ArialMT-46"/>
      <use xlink:href="#ArialMT-69" x="61.083984"/>
      <use xlink:href="#ArialMT-6e" x="83.300781"/>
      <use xlink:href="#ArialMT-67" x="138.916016"/>
      <use xlink:href="#ArialMT-65" x="194.53125"/>
      <use xlink:href="#ArialMT-72" x="250.146484"/>
      <use xlink:href="#ArialMT-20" x="283.447266"/>
      <use xlink:href="#ArialMT-6d" x="311.230469"/>
      <use xlink:href="#ArialMT-69" x="394.53125"/>
      <use xlink:href="#ArialMT-6c" x="416.748047"/>
      <use xlink:href="#ArialMT-6c" x="438.964844"/>
      <use xlink:href="#ArialMT-65" x="461.181641"/>
      <use xlink:href="#ArialMT-74" x="516.796875"/>
     </g>
    </g>
    <g id="line2d_41">
     <path d="M 723.428125 208.795469 
L 733.428125 208.795469 
L 743.428125 208.795469 
" style="fill: none; stroke: #e377c2; stroke-width: 1.5; stroke-linecap: round"/>
    </g>
    <g id="text_24">
     <!-- Minor pulses -->
     <g style="fill: #262626" transform="translate(751.428125 212.295469) scale(0.1 -0.1)">
      <use xlink:href="#ArialMT-4d"/>
      <use xlink:href="#ArialMT-69" x="83.300781"/>
      <use xlink:href="#ArialMT-6e" x="105.517578"/>
      <use xlink:href="#ArialMT-6f" x="161.132812"/>
      <use xlink:href="#ArialMT-72" x="216.748047"/>
      <use xlink:href="#ArialMT-20" x="250.048828"/>
      <use xlink:href="#ArialMT-70" x="277.832031"/>
      <use xlink:href="#ArialMT-75" x="333.447266"/>
      <use xlink:href="#ArialMT-6c" x="389.0625"/>
      <use xlink:href="#ArialMT-73" x="411.279297"/>
      <use xlink:href="#ArialMT-65" x="461.279297"/>
      <use xlink:href="#ArialMT-73" x="516.894531"/>
     </g>
    </g>
    <g id="line2d_42">
     <path d="M 723.428125 222.940781 
L 733.428125 222.940781 
L 743.428125 222.940781 
" style="fill: none; stroke: #7f7f7f; stroke-width: 1.5; stroke-linecap: round"/>
    </g>
    <g id="text_25">
     <!-- Groundnut -->
     <g style="fill: #262626" transform="translate(751.428125 226.440781) scale(0.1 -0.1)">
      <defs>
       <path id="ArialMT-47" d="M 2638 1797 
L 2638 2334 
L 4578 2338 
L 4578 638 
Q 4131 281 3656 101 
Q 3181 -78 2681 -78 
Q 2006 -78 1454 211 
Q 903 500 622 1047 
Q 341 1594 341 2269 
Q 341 2938 620 3517 
Q 900 4097 1425 4378 
Q 1950 4659 2634 4659 
Q 3131 4659 3532 4498 
Q 3934 4338 4162 4050 
Q 4391 3763 4509 3300 
L 3963 3150 
Q 3859 3500 3706 3700 
Q 3553 3900 3268 4020 
Q 2984 4141 2638 4141 
Q 2222 4141 1919 4014 
Q 1616 3888 1430 3681 
Q 1244 3475 1141 3228 
Q 966 2803 966 2306 
Q 966 1694 1177 1281 
Q 1388 869 1791 669 
Q 2194 469 2647 469 
Q 3041 469 3416 620 
Q 3791 772 3984 944 
L 3984 1797 
L 2638 1797 
z
" transform="scale(0.015625)"/>
      </defs>
      <use xlink:href="#ArialMT-47"/>
      <use xlink:href="#ArialMT-72" x="77.783203"/>
      <use xlink:href="#ArialMT-6f" x="111.083984"/>
      <use xlink:href="#ArialMT-75" x="166.699219"/>
      <use xlink:href="#ArialMT-6e" x="222.314453"/>
      <use xlink:href="#ArialMT-64" x="277.929688"/>
      <use xlink:href="#ArialMT-6e" x="333.544922"/>
      <use xlink:href="#ArialMT-75" x="389.160156"/>
      <use xlink:href="#ArialMT-74" x="444.775391"/>
     </g>
    </g>
    <g id="line2d_43">
     <path d="M 723.428125 237.086094 
L 733.428125 237.086094 
L 743.428125 237.086094 
" style="fill: none; stroke: #bcbd22; stroke-width: 1.5; stroke-linecap: round"/>
    </g>
    <g id="text_26">
     <!-- Oilseeds -->
     <g style="fill: #262626" transform="translate(751.428125 240.586094) scale(0.1 -0.1)">
      <defs>
       <path id="ArialMT-4f" d="M 309 2231 
Q 309 3372 921 4017 
Q 1534 4663 2503 4663 
Q 3138 4663 3647 4359 
Q 4156 4056 4423 3514 
Q 4691 2972 4691 2284 
Q 4691 1588 4409 1038 
Q 4128 488 3612 205 
Q 3097 -78 2500 -78 
Q 1853 -78 1343 234 
Q 834 547 571 1087 
Q 309 1628 309 2231 
z
M 934 2222 
Q 934 1394 1379 917 
Q 1825 441 2497 441 
Q 3181 441 3623 922 
Q 4066 1403 4066 2288 
Q 4066 2847 3877 3264 
Q 3688 3681 3323 3911 
Q 2959 4141 2506 4141 
Q 1863 4141 1398 3698 
Q 934 3256 934 2222 
z
" transform="scale(0.015625)"/>
      </defs>
      <use xlink:href="#ArialMT-4f"/>
      <use xlink:href="#ArialMT-69" x="77.783203"/>
      <use xlink:href="#ArialMT-6c" x="100"/>
      <use xlink:href="#ArialMT-73" x="122.216797"/>
      <use xlink:href="#ArialMT-65" x="172.216797"/>
      <use xlink:href="#ArialMT-65" x="227.832031"/>
      <use xlink:href="#ArialMT-64" x="283.447266"/>
      <use xlink:href="#ArialMT-73" x="339.0625"/>
     </g>
    </g>
    <g id="line2d_44">
     <path d="M 723.428125 251.353281 
L 733.428125 251.353281 
L 743.428125 251.353281 
" style="fill: none; stroke: #17becf; stroke-width: 1.5; stroke-linecap: round"/>
    </g>
    <g id="text_27">
     <!-- Sugarcane -->
     <g style="fill: #262626" transform="translate(751.428125 254.853281) scale(0.1 -0.1)">
      <use xlink:href="#ArialMT-53"/>
      <use xlink:href="#ArialMT-75" x="66.699219"/>
      <use xlink:href="#ArialMT-67" x="122.314453"/>
      <use xlink:href="#ArialMT-61" x="177.929688"/>
      <use xlink:href="#ArialMT-72" x="233.544922"/>
      <use xlink:href="#ArialMT-63" x="266.845703"/>
      <use xlink:href="#ArialMT-61" x="316.845703"/>
      <use xlink:href="#ArialMT-6e" x="372.460938"/>
      <use xlink:href="#ArialMT-65" x="428.076172"/>
     </g>
    </g>
   </g>
  </g>
 </g>
 <defs>
  <clipPath id="p733589072a">
   <rect x="49.828125" y="21.935625" width="669.6" height="332.64"/>
  </clipPath>
 </defs>
</svg>
